<svg width="32" height="32" version="1.1" viewBox="0 0 32 32" xmlns="http://www.w3.org/2000/svg">
  <path d="m16-1e-5c-8.833 0-16 7.167-16 16 0 8.833 7.167 16 16 16 8.833 0 16-7.167 16-16 0-8.833-7.167-16-16-16zm0 0.6409c8.486 0 15.36 6.873 15.36 15.36 0 8.487-6.873 15.36-15.36 15.36-8.486 0-15.36-6.873-15.36-15.36 0-8.487 6.873-15.36 15.36-15.36zm1e-6 0.3552a15 15 0 0 0-15 15 15 15 0 0 0 15 15 15 15 0 0 0 15-15 15 15 0 0 0-15-15zm-1.861 0.8086c9.55e-4 -8.07e-5 0.0049 7e-7 0.0059 0h2e-3c9.35e-4 1.57e-4 5e-3 0.00172 0.0059 0.00195 8.82e-4 3.031e-4 5e-3 0.00158 0.0059 0.00195h2e-3l0.014 0.01365c3.97e-4 8.619e-4 0.0016 0.00496 2e-3 0.00586l2e-3 0.00195 0.07617 0.2871c0.0083 0.03066 0.01312 0.04616 0.01758 0.05469l2e-3 0.00195c0.0056 0.00863 0.01288 0.01586 0.02148 0.02148 8e-3 0.00521 0.0216 0.0101 0.05664 0.01953l0.2871 0.07812h4e-3c9.31e-4 4.279e-4 5e-3 0.00341 0.0059 0.00391h2e-3l6e-3 0.00585c5.32e-4 7.44e-4 0.0034 0.00508 0.0039 0.00586 0.0048 0.00973 0.0048 0.02347 0 0.0332v0.00195l-0.01 0.00975c-8.65e-4 4.926e-4 -0.0049 0.00348-0.0059 0.00391-9.97e-4 3.585e-4 -0.0048 0.00167-0.0059 0.00195l-0.2871 0.07617c-0.03504 0.00944-0.04864 0.01432-0.05664 0.01953-0.0086 0.00561-0.01589 0.01284-0.02148 0.02148-0.0052 0.00802-0.01013 0.0216-0.01953 0.05664l-0.07617 0.2871v0.00195l-2e-3 0.00195v0.00195h-2e-3v0.0039l-0.012 0.0117c-0.0092 0.00452-0.02508 0.00576-0.03516 0.00195l-0.012-0.0117v-0.00195h-2e-3v-0.0039c-3.61e-4 -9.942e-4 -0.0017-0.0048-2e-3 -0.00586l-0.07813-0.2871c-0.0094-0.03504-0.01433-0.04862-0.01953-0.05664-0.0056-0.00864-0.01289-0.01587-0.02148-0.02148-8e-3 -0.00521-0.02161-0.0101-0.05664-0.01953l-0.287-0.0761h-2e-3l-2e-3 -0.00195h-2e-3v-0.00195h-4e-3l-0.012-0.0117c-0.0048-0.00973-0.0048-0.02347 0-0.0332v-0.0039h2e-3v-0.00195l8e-3 -0.0078h2e-3v-0.00195h4e-3c9.97e-4 -3.586e-4 0.0048-0.00167 0.0059-0.00195l0.2871-0.07812c0.03504-0.00944 0.04864-0.01431 0.05664-0.01953 0.0086-0.00562 0.01588-0.01284 0.02148-0.02148 0.0045-0.00853 0.01131-0.02598 0.01953-0.05664l0.07813-0.2871c3.26e-4 -9.011e-4 0.0016-5e-3 2e-3 -0.00586v-0.00195l0.014-0.01365c8.5e-4 -3.722e-4 5e-3 -0.00165 0.0059-0.00195 9.12e-4 -2.321e-4 0.0049-0.0018 0.0059-0.00195zm5.275 2.336h8e-3c9.57e-4 2.15e-5 0.0029 7e-7 0.0039 0 0.03281-2.07e-5 0.06181 0.02301 0.07031 0.05469l0.1621 0.6055c0.01988 0.07384 0.03003 0.1022 0.04102 0.1191 0.01182 0.0182 0.02671 0.03503 0.04492 0.04688 0.0169 0.01099 0.0453 0.01918 0.1191 0.03906l0.6055 0.1641c0.07175 0.01919 0.07175 0.1195 0 0.1387l-0.6055 0.1641c-0.07384 0.01988-0.1022 0.02808-0.1191 0.03906-0.0182 0.01183-0.03309 0.02867-0.04492 0.04688-0.01098 0.0169-0.02114 0.0453-0.04102 0.1191l-0.1621 0.6055c-0.01932 0.07152-0.1213 0.07152-0.1406 0l-0.1642-0.6055c-0.01987-0.07384-0.02808-0.1022-0.03906-0.1191-0.01183-0.01821-0.02867-0.03505-0.04687-0.04688-0.0169-0.01099-0.0453-0.01918-0.1191-0.03906l-0.6055-0.1641c-0.07175-0.01919-0.07175-0.1195 0-0.1387l0.6055-0.1641c0.07383-0.01988 0.1022-0.02807 0.1191-0.03906 0.01821-0.01184 0.03505-0.02867 0.04687-0.04688 0.01099-0.01691 0.01919-0.0453 0.03906-0.1191l0.1641-0.6055c0.0075-0.02781 0.03081-0.05001 0.05859-0.05469zm-12.25 1.762h0.01365l0.00195 0.00195h0.00195l0.00195 0.00195h0.00195v0.00195l0.0039 0.0039v0.00195l0.00195 0.00195 0.04492 0.1699c0.00415 0.01543 0.00553 0.02403 0.00781 0.0293l0.0039 0.0039v0.00195l0.002006 0.001984c0.00213 0.00213 0.00723 0.00616 0.00977 0.00781l0.00195 0.00195c0.00527 0.00229 0.01581 0.00561 0.03125 0.00977l0.1699 0.04492 0.00195 0.00195h0.00195l0.00195 0.00195h0.00195v0.00195l0.0039 0.0039v0.00195l0.00195 0.00195c4.297e-4 0.00121-7.81e-5 0.00338 0 0.00391 0 0.00105 1.562e-4 0.00482 0 0.00586-3.124e-4 0.00101-0.00148 0.00491-0.00195 0.00586v0.00195h-0.00195v0.00195l-0.0039 0.0039h-0.00195l-0.00195 0.00195h-0.00195l-0.1699 0.04688c-0.01544 0.00415-0.02403 0.00553-0.0293 0.00781l-0.00195 0.00195h-0.00195l-0.00195 0.00195h-0.00195c-0.00324 0.00312-0.00534 0.00792-0.00781 0.01172l-0.00195 0.00195c-0.00228 0.00527-0.00561 0.01582-0.00977 0.03125l-0.04494 0.168-0.001953 0.001953v0.0039l-0.00585 0.00585h-0.00195l-0.0039 0.0039c-0.00121 4.299e-4 -0.00339-7.79e-5 -0.00391 0h-0.00195c-0.00257-4.034e-4 -0.0063-0.00149-0.00781-0.00195h-0.00195l-0.00195-0.00195h-0.00195l-0.00195-0.00195v-0.00195h-0.00195v-0.00195l-0.00195-0.00195v-0.003903l-0.04691-0.168c-0.00415-0.01543-0.00553-0.02403-0.00781-0.0293l-0.00195-0.00195v-0.00195c-0.0033-0.00507-0.00859-0.01037-0.01367-0.01367h-0.00195c-0.00527-0.00229-0.01582-0.00561-0.03125-0.00977l-0.168-0.04688h-0.0039l-0.001959-0.001953h-0.00195v-0.00195h-0.00195l-0.00195-0.00195v-0.001959h-0.00195c-4.687e-4 -9.526e-4 -0.00164-0.00485-0.00195-0.00586-1.562e-4 -0.00104 0-0.00481 0-0.00586v-0.00585l0.00195-0.00195v-0.00195l0.0078-0.0078h0.0039l0.00195-0.00195 0.168-0.04492c0.01543-0.00415 0.02403-0.00748 0.0293-0.00977h0.00195l0.00195-0.00195c0.00127-8.25e-4 0.00449-0.00291 0.00586-0.00391l0.001968-0.001978c4.737e-4 -5.847e-4 0.00266-0.00275 0.00391-0.00391l0.00195-0.00195v-0.00195c0.00229-0.00527 0.00561-0.01582 0.00977-0.03125l0.04688-0.1699v-0.00195l0.00195-0.00195v-0.00195h0.00195v-0.00195l0.0039-0.0039h0.00195zm3.807 1.463h5.844c0.5749 0 0.8613 0.2876 0.8613 0.8633v2.902c0 0.5757-0.2864 0.8633-0.8613 0.8633h-4.814c-0.9741 0-1.461 0.3997-1.461 1.199v5.709c0 0.7676 0.4868 1.15 1.461 1.15h4.814c0.5749 0 0.8613 0.2876 0.8613 0.8633v2.855c0 0.5757-0.2864 0.8633-0.8613 0.8633h-5.844c-2.012 0-3.499-0.3997-4.457-1.199s-1.436-2.03-1.436-3.693v-7.461c0-1.679 0.4774-2.917 1.436-3.717s2.445-1.199 4.457-1.199zm10.54 0h4.574c0.5589 0 0.8304 0.2876 0.8145 0.8633l-0.334 9.258c-0.01597 0.5757-0.3213 0.8633-0.9121 0.8633h-3.711c-0.5749 0-0.8707-0.2876-0.8867-0.8633l-0.3594-9.258c-0.01597-0.5757 0.2555-0.8633 0.8145-0.8633zm-10.01 2.158c-1.022 0-1.812 0.1046-2.371 0.3125-0.5429 0.2079-0.9268 0.5421-1.15 1.006-0.2076 0.4477-0.3105 1.057-0.3105 1.824v6.715c0 0.7356 0.103 1.337 0.3105 1.801 0.2076 0.4477 0.584 0.7745 1.127 0.9824 0.5589 0.2079 1.357 0.3125 2.395 0.3125h4v-0.2402h-4c-0.9581 0-1.7-0.08777-2.227-0.2637-0.511-0.1919-0.8705-0.4963-1.078-0.9121-0.1916-0.4318-0.2871-0.9921-0.2871-1.68v-6.715c0-0.7196 0.103-1.287 0.3105-1.703 0.2076-0.4318 0.5671-0.7362 1.078-0.9121 0.527-0.1919 1.261-0.2871 2.203-0.2871h4v-0.2402zm12.19 0v6.668h0.2383v-6.668zm-2.084 10.24h4.406c0.5749 0 0.8633 0.2876 0.8633 0.8633v3.143c0 0.5757-0.2884 0.8633-0.8633 0.8633h-4.406c-0.5749 0-0.8633-0.2876-0.8633-0.8633v-3.143c0-0.5757 0.2884-0.8633 0.8633-0.8633zm2.084 1.918v1.033h0.2383v-1.033z" fill="currentColor" stroke-linecap="round" stroke-linejoin="round"/>
</svg>
