<svg width="670" height="220" version="1.1" viewBox="0 0 670 220" xmlns="http://www.w3.org/2000/svg">
  <defs>
    <style>
      @keyframes tx-blink {
        0%,100% { opacity: 0.45; }
        50%      { opacity: 1;    }
      }
      .tx-sd { animation: tx-blink 2.8s ease-in-out infinite; }
    </style>
    <filter id="filter32" x="-.01096" y="-.0763" width="1.022" height="1.153" color-interpolation-filters="sRGB">
      <feGaussianBlur stdDeviation="2.5932976"/>
    </filter>
  </defs>
  <path d="m49.62 10.13c-21.88 0-39.49 17.64-39.49 39.55v120.6c0 21.91 17.61 39.55 39.49 39.55h570.8c21.88 0 39.49-17.64 39.49-39.55v-120.6c0-21.91-17.61-39.55-39.49-39.55zm6.806 9.672h557.1c19.67 0 35.67 16.02 35.67 35.72v109c0 19.7-16 35.72-35.67 35.72h-557.1c-19.67 0-35.67-16.01-35.67-35.72v-109c0-19.7 15.99-35.72 35.67-35.72z" fill="#27414d" fill-opacity=".902" stroke="#27414d" stroke-linecap="round" stroke-linejoin="round" stroke-width=".2646"/>
  <path d="m56.43 29.75c-14.35 0-25.74 11.41-25.74 25.78v109c0 14.37 11.39 25.77 25.74 25.77h557.1c14.35 0 25.74-11.41 25.74-25.77v-109c0-14.37-11.4-25.78-25.74-25.78z" fill="#1f5f9a"/>
  <g stroke-linecap="round" stroke-linejoin="round">
    <path d="m30.69 113.5v0.6602h608.6v-0.6602zm608.6 1.927h-608.6v1.986h608.6zm0 4.105h-608.6v3.313h608.6zm0 5.694h-608.6v6.63h608.6zm0 9.683h-608.6v10.6h608.6zm0 14.59h-608.6v14.96c0 14.37 11.39 25.77 25.74 25.77h557.1c14.35 0 25.74-11.41 25.74-25.77z" fill="#2c7ad9" fill-opacity=".6" stop-color="#000000"/>
    <path d="m151.1 71.75c-6.807 0-12.42 0.5431-16.84 1.631-4.345 1.088-7.747 2.611-10.21 4.568-2.462 1.958-4.199 4.315-5.213 7.07-1.014 2.683-1.521 5.692-1.521 9.027v37.09c0 3.336 0.5077 6.381 1.521 9.137 1.014 2.683 2.751 5.003 5.213 6.961 2.462 1.958 5.864 3.444 10.21 4.459 4.417 1.088 10.03 1.631 16.84 1.631 6.807 0 12.38-0.5432 16.73-1.631 4.417-1.015 7.856-2.501 10.32-4.459 2.462-1.958 4.162-4.278 5.104-6.961 1.014-2.755 1.521-5.801 1.521-9.137v-37.09c0-3.335-0.5077-6.344-1.521-9.027-0.9414-2.755-2.642-5.112-5.104-7.07-2.462-1.958-5.901-3.481-10.32-4.568-4.345-1.088-9.922-1.631-16.73-1.631zm-74.73 1.631c-9.124 0-15.86 1.812-20.2 5.438-4.345 3.626-6.516 9.246-6.516 16.86v33.83c0 7.541 2.171 13.13 6.516 16.75 4.345 3.626 11.08 5.438 20.2 5.438h26.5c2.607 0 3.91-1.306 3.91-3.916v-12.94c0-2.61-1.303-3.916-3.91-3.916h-21.83c-4.417 0-6.625-1.74-6.625-5.221v-25.89c0-3.626 2.208-5.438 6.625-5.438h21.83c2.607 0 3.91-1.306 3.91-3.916v-13.16c0-2.61-1.303-3.916-3.91-3.916zm126.1 0c-2.607 0-3.91 1.306-3.91 3.916v70.48c0 2.61 1.303 3.916 3.91 3.916h16.18c2.607 0 3.91-1.306 3.91-3.916v-38.29l6.408 11.86c1.231 2.32 3.151 3.48 5.758 3.48h4.344c2.607 0 4.525-1.16 5.756-3.48l6.41-11.86v38.29c0 2.61 1.303 3.916 3.91 3.916h16.73c2.607 0 3.91-1.306 3.91-3.916v-70.48c0-2.61-1.303-3.916-3.91-3.916h-17.6c-2.172 0-3.838 1.088-4.996 3.264l-9.668 17.73c-0.362 0.6524-0.6869 1.124-0.9766 1.414-0.2172 0.2899-0.5441 0.4355-0.9785 0.4355h-0.9766c-0.4345 0-0.7982-0.1456-1.088-0.4355-0.2172-0.2901-0.5051-0.7615-0.8672-1.414l-9.777-17.73c-1.159-2.175-2.824-3.264-4.996-3.264zm92.21 0c-2.607 0-3.91 1.306-3.91 3.916v70.48c0 2.61 1.303 3.916 3.91 3.916h16.84c2.607 0 3.91-1.306 3.91-3.916v-18.05h12.49c6.589 0 11.73-0.8711 15.42-2.611 3.765-1.813 6.407-4.313 7.928-7.504 1.521-3.19 2.281-6.888 2.281-11.09v-13.92c0-4.206-0.7606-7.903-2.281-11.09-1.521-3.191-4.162-5.656-7.928-7.396-3.693-1.813-8.834-2.719-15.42-2.719zm73.54 0c-2.607 0-3.91 1.306-3.91 3.916v53.84c0 3.336 0.4708 6.381 1.412 9.137 1.014 2.683 2.751 5.003 5.213 6.961 2.534 1.958 5.974 3.444 10.32 4.459 4.345 1.088 9.885 1.631 16.62 1.631 6.734 0 12.27-0.5432 16.62-1.631 4.345-1.015 7.747-2.501 10.21-4.459 2.534-1.958 4.272-4.278 5.213-6.961 1.014-2.755 1.521-5.801 1.521-9.137v-53.84c0-2.61-1.303-3.916-3.91-3.916h-16.51c-2.607 0-3.91 1.306-3.91 3.916v49.6c0 1.45-0.5428 2.682-1.629 3.697-1.086 0.9427-3.549 1.414-7.387 1.414-3.765 0-6.191-0.4714-7.277-1.414-1.086-1.015-1.629-2.247-1.629-3.697v-49.6c0-2.61-1.303-3.916-3.91-3.916zm77.12 0c-2.607 0-3.91 1.306-3.91 3.916v13.16c0 2.61 1.303 3.916 3.91 3.916h15.97v53.4c0 2.61 1.303 3.916 3.91 3.916h17.6c2.607 0 3.91-1.306 3.91-3.916v-53.4h15.97c2.607-1e-6 3.91-1.306 3.91-3.916v-13.16c0-2.61-1.303-3.916-3.91-3.916zm75.71 0c-2.607 0-3.91 1.306-3.91 3.916v70.48c0 2.61 1.303 3.916 3.91 3.916h50.4c2.607 0 3.91-1.306 3.91-3.916v-12.72c0-2.61-1.303-3.916-3.91-3.916h-29.98v-9.354h21.18c2.607 0 3.91-1.306 3.91-3.916v-11.64c0-2.61-1.303-3.916-3.91-3.916h-21.18v-8.375h29.98c2.607 0 3.91-1.306 3.91-3.916v-12.72c0-2.61-1.303-3.916-3.91-3.916zm72.23 0c-2.534 0-3.766 1.306-3.693 3.916l1.629 41.98c0.0724 2.61 1.413 3.914 4.02 3.914h16.84c2.679 0 4.054-1.304 4.127-3.914l1.521-41.98c0.0724-2.61-1.159-3.916-3.693-3.916zm-141.4 5.209 46.89 0.5977a4 4 0 0 1 3.949 4.051 4 4 0 0 1-4.051 3.947l-20.5-0.2617-0.834 54.57a4 4 0 0 1-4.061 3.939 4 4 0 0 1-3.939-4.062l0.8359-54.55-18.39-0.2344a4 4 0 0 1-3.947-4.049 4 4 0 0 1 4.051-3.949zm-368.6 0.07422c7.419-0.2481 13.84 0.5527 13.84 0.5527a4 4 0 0 1 3.479 4.459 4 4 0 0 1-4.459 3.48s-5.898-0.7198-12.59-0.4961c-6.69 0.2237-13.86 2.024-15.76 4.133-0.2301 0.2552-1.581 3.574-2.076 7.941-0.4955 4.367-0.5929 9.828-0.4258 15.17 0.1671 5.34 0.5942 10.58 1.098 14.58 0.2517 2 0.5255 3.696 0.7734 4.875 0.08982 0.4271 0.1626 0.6831 0.2344 0.9453 0.1309 0.0827 0.2181 0.1552 0.459 0.252 0.7675 0.3082 1.983 0.6636 3.422 0.9805 2.878 0.6338 6.668 1.145 10.38 1.52 7.418 0.7487 14.51 0.9746 14.51 0.9746a4 4 0 0 1 3.873 4.123 4 4 0 0 1-4.123 3.873s-7.296-0.2261-15.06-1.01c-3.882-0.3918-7.881-0.9161-11.29-1.668-1.707-0.3759-3.265-0.8001-4.682-1.369-1.417-0.569-2.786-1.134-4.018-2.803-0.6997-0.9479-0.8051-1.481-1.004-2.113-0.1988-0.6322-0.3622-1.301-0.5215-2.059-0.3186-1.515-0.6103-3.372-0.8809-5.521-0.5411-4.299-0.981-9.734-1.156-15.33-0.1752-5.6-0.09193-11.34 0.4727-16.32 0.5646-4.976 1.151-9.142 4.084-12.39 5.284-5.861 14.02-6.525 21.44-6.773zm68.13 0.1484c7.956 0.1833 15.28 1.506 20.1 3.316a4 4 0 0 1 2.365 2.408c1.084 3.054 1.694 7.18 2.189 12.22 0.4956 5.045 0.7859 10.87 0.8281 16.62s-0.1601 11.41-0.6836 16.17c-0.5235 4.764-0.8927 8.376-3.154 11.52a4 4 0 0 1-1.484 1.258c-4.409 2.165-11.11 3.178-18.79 3.418-7.686 0.2402-16.01-0.4545-22.65-3.34a4 4 0 0 1-1.758-1.484c-2.07-3.174-2.488-6.882-3.004-11.69-0.5155-4.803-0.7352-10.46-0.7637-16.13-0.0569-11.35 0.5131-22.21 1.562-27.17a4 4 0 0 1 1.998-2.684c6.797-3.708 15.29-4.631 23.24-4.447zm167.1 0.03711c4.182 0.01897 8.561 0.1398 12.38 0.4785 3.822 0.3387 6.82 0.5585 9.67 2.166a4 4 0 0 1 1.432 1.371c3.066 4.924 4.358 11.3 4.541 17.68 0.1798 6.272-0.7297 12.49-3.244 17.4-0.9501 2.199-2.721 3.302-4.383 4.039-1.681 0.7455-3.501 1.185-5.492 1.523-3.983 0.6768-8.653 0.8748-13.22 0.8848-5.32 0.0112-9.85-0.2241-13.24-0.4492l0.0898 17.77a4 4 0 0 1-3.98 4.021 4 4 0 0 1-4.02-3.98l-0.1113-21.94a4 4 0 0 1-0.1719-0.5488 4 4 0 0 1 0.166-0.3164l-0.1816-35.74a4 4 0 0 1 3.801-4.016s7.59-0.3797 15.96-0.3418zm210.1 0.3359h36.14a4 4 0 0 1 4 4 4 4 0 0 1-4 4h-32.06l0.4199 20.46 23.37 0.5137a4 4 0 0 1 3.91 4.086 4 4 0 0 1-4.086 3.912l-23.03-0.5059 0.4473 21.75 31.29-0.2656a4 4 0 0 1 4.033 3.967 4 4 0 0 1-3.967 4.033l-35.25 0.2988a4 4 0 0 1-4.033-3.918l-1.195-58.25a4 4 0 0 1 4-4.082zm-271.4 0.0059a4 4 0 0 1 0.5488 0.01367l6.273 0.5977a4 4 0 0 1 3.619 4.084l-1.494 57.95a4 4 0 0 1-4.102 3.895 4 4 0 0 1-3.896-4.102l1.398-54.22-0.1191-0.01172-15.41 24.22a4 4 0 0 1-3.227 1.85l-8.064 0.2988a4 4 0 0 1-3.529-1.859l-14.45-22.86-0.2695 51.21a4 4 0 0 1-4.021 3.979 4 4 0 0 1-3.979-4.021l0.2988-56.75a4 4 0 0 1 4.223-3.973l5.375 0.2969a4 4 0 0 1 3.16 1.857l15.2 24.04 3.666-0.1348 15.6-24.51a4 4 0 0 1 3.205-1.848zm160.7 2e-3a4 4 0 0 1 4.215 3.773c0-1e-6 0.6021 10.89 0.7715 23.05 0.0847 6.079 0.0624 12.48-0.2031 18.06-0.2514 5.287-0.6362 9.571-1.695 12.96-0.3609 2.186-1.708 3.521-2.973 4.441-1.291 0.9395-2.73 1.6-4.35 2.182-3.239 1.163-7.221 1.934-11.52 2.266-8.442 0.6509-18.12-0.0554-24.58-5.541-2.341-1.426-2.794-3.394-3.371-5.332-0.6135-2.059-1.009-4.444-1.318-7.15-0.6186-5.413-0.8372-12.07-0.875-18.61-0.0756-13.09 0.6035-25.72 0.6035-25.72a4 4 0 0 1 4.207-3.781 4 4 0 0 1 3.781 4.209c0-1e-6 -0.6656 12.46-0.5918 25.25 0.0369 6.392 0.2667 12.87 0.8242 17.75 0.2788 2.439 0.6522 4.488 1.035 5.773 0.2149 0.7214 0.5464 1.09 0.5742 1.158v2e-3l2e-3 2e-3v6e-3h-2e-3v2e-3h-6e-3c-0.0412-9e-3 -0.2324-0.1388-0.6777-0.373a4 4 0 0 1 0.7969 0.5527c3.254 2.904 11.6 4.402 18.98 3.832 3.694-0.2848 7.143-0.9974 9.43-1.818 1.142-0.4098 1.989-0.863 2.342-1.119 0.5109-1.484 1.137-6.019 1.389-11.31 0.2526-5.311 0.2767-11.59 0.1934-17.57-0.1666-11.96-0.7598-22.72-0.7598-22.72a4 4 0 0 1 3.773-4.213zm185.4 0.8887a4 4 0 0 1 4 4v27.78a4 4 0 0 1-4 4 4 4 0 0 1-4-4v-27.78a4 4 0 0 1 4-4zm-452 6.729c-6.313-0.1455-12.74 0.7485-17.42 2.725-0.5698 4.038-1.251 13.66-1.201 23.54 0.0276 5.49 0.2475 10.94 0.7168 15.32 0.3761 3.505 1.063 5.986 1.449 7.16 4.725 1.663 11.45 2.404 17.76 2.207 6.228-0.1947 11.76-1.364 14.31-2.281 0.3375-1.042 1.044-3.387 1.418-6.795 0.4719-4.295 0.6772-9.723 0.6367-15.24-0.0405-5.519-0.3226-11.15-0.7891-15.9-0.3532-3.595-0.8521-6.389-1.322-8.4-3.72-1.113-9.369-2.189-15.56-2.332zm167.2 0.03906c-6.107-0.0277-9.253 0.1488-11.7 0.25l0.1484 28.82c3.198 0.2247 7.722 0.4862 13.26 0.4746 4.323-9e-3 8.707-0.2302 11.89-0.7715 1.593-0.2707 2.886-0.639 3.59-0.9512 0.3221-0.1429 0.4309-0.2426 0.4668-0.2695 1.551-2.979 2.56-8.314 2.408-13.62-0.1378-4.809-1.3-9.393-2.873-12.49-0.7412-0.2064-2.55-0.7307-5.479-0.9902-3.445-0.3053-7.664-0.4289-11.71-0.4473zm-167.4 6.109c3.983 0 6.482 0.4714 7.496 1.414 1.086 0.9426 1.629 2.14 1.629 3.59v29.26c-1e-5 1.45-0.5428 2.682-1.629 3.697-1.014 0.9426-3.513 1.414-7.496 1.414-3.91 0-6.408-0.4714-7.494-1.414-1.086-1.015-1.629-2.247-1.629-3.697v-29.26c0-1.45 0.5427-2.647 1.629-3.59 1.086-0.9427 3.584-1.414 7.494-1.414zm164.1 0.7617h9.775c2.1 0 3.477 0.5432 4.129 1.631 0.6517 1.015 0.9766 2.249 0.9766 3.699v5.764c0 1.378-0.3249 2.612-0.9766 3.699-0.6517 1.088-2.029 1.631-4.129 1.631h-9.775zm278.5 35.89c-2.607 0-3.91 1.306-3.91 3.916v14.25c0 2.61 1.303 3.916 3.91 3.916h19.99c2.607 0 3.91-1.306 3.91-3.916v-14.25c0-2.61-1.303-3.916-3.91-3.916zm9.598 5.729a4 4 0 0 1 4 4v3.287a4 4 0 0 1-4 4 4 4 0 0 1-4-4v-3.287a4 4 0 0 1 4-4z" fill="#212b67" filter="url(#filter32)" opacity=".8475" stroke-opacity=".698" stroke-width=".2646" style="mix-blend-mode:normal"/>
    <path d="m104.1 149.2h-26.5q-13.69 0-20.2-5.438-6.517-5.438-6.517-16.75v-33.83q0-11.42 6.517-16.86 6.517-5.438 20.2-5.438h26.5q3.91 0 3.91 3.916v13.16q0 3.916-3.91 3.916h-21.83q-6.626 0-6.626 5.438v25.89q0 5.221 6.626 5.221h21.83q3.91 0 3.91 3.916v12.94q0 3.916-3.91 3.916zm-5.974-9.789v-1.088h-18.14q-6.517 0-10.1-1.196-3.476-1.305-4.888-4.133-1.303-2.937-1.303-7.614v-30.45q0-4.895 1.412-7.722 1.412-2.937 4.888-4.133 3.584-1.305 9.993-1.305h18.14v-1.088h-18.14q-6.951 0-10.75 1.414-3.693 1.414-5.214 4.568-1.412 3.046-1.412 8.266v30.45q0 5.003 1.412 8.158 1.412 3.045 5.105 4.459 3.802 1.414 10.86 1.414zm87.87-10.77q0 5.003-1.521 9.136-1.412 4.024-5.105 6.961-3.693 2.937-10.32 4.459-6.517 1.632-16.73 1.632-10.21 0-16.84-1.632-6.517-1.523-10.21-4.459-3.693-2.937-5.214-6.961-1.521-4.133-1.521-9.136v-37.09q0-5.003 1.521-9.028 1.521-4.133 5.214-7.07 3.693-2.937 10.21-4.568 6.626-1.632 16.84-1.632 10.21 0 16.73 1.632 6.626 1.631 10.32 4.568 3.693 2.937 5.105 7.07 1.521 4.024 1.521 9.028zm-33.89 12.18q8.581 0 13.36-1.849 4.779-1.849 6.734-5.112 1.955-3.372 1.955-7.722v-32.09q0-4.459-1.955-7.722-1.955-3.263-6.734-5.112-4.779-1.849-13.36-1.849-8.472 0-13.25 1.849-4.779 1.849-6.734 5.112-1.846 3.263-1.846 7.722v32.09q0 4.351 1.846 7.722 1.955 3.263 6.734 5.112 4.779 1.849 13.25 1.849zm0-1.088q-8.038 0-12.6-1.631-4.562-1.74-6.408-4.786-1.738-3.154-1.738-7.179v-32.09q0-4.133 1.738-7.179 1.847-3.045 6.408-4.677 4.562-1.74 12.6-1.74 8.146 0 12.71 1.74 4.562 1.632 6.408 4.677 1.846 3.045 1.846 7.179v32.09q0 4.024-1.846 7.179-1.846 3.046-6.408 4.786-4.562 1.631-12.71 1.631zm-8.907-15.01q0 2.175 1.629 3.698 1.629 1.414 7.495 1.414 5.974 0 7.495-1.414 1.629-1.523 1.629-3.698v-29.26q0-2.175-1.629-3.589-1.521-1.414-7.495-1.414-5.865 0-7.495 1.414-1.629 1.414-1.629 3.589zm76.68 24.47h-16.18q-3.91 0-3.91-3.916v-70.48q0-3.916 3.91-3.916h17.49q3.259 0 4.996 3.263l9.776 17.73q0.5431 0.9789 0.8689 1.414 0.4345 0.4349 1.086 0.4349h0.9776q0.6517 0 0.9775-0.4349 0.4345-0.4353 0.9776-1.414l9.667-17.73q1.738-3.263 4.996-3.263h17.6q3.91 0 3.91 3.916v70.48q0 3.916-3.91 3.916h-16.73q-3.91 0-3.91-3.916v-38.29l-6.408 11.86q-1.846 3.481-5.757 3.481h-4.345q-3.91 0-5.757-3.481l-6.408-11.86v38.29q0 3.916-3.91 3.916zm18.14-41.88q-1.955 0-2.824-0.8701-0.869-0.8701-2.715-3.698l-13.25-20.23q-0.6517-1.088-1.521-1.414-0.869-0.4354-1.738-0.4354h-1.846q-2.824 0-2.824 3.372v55.36h1.086v-55.36q0-0.8701 0.3262-1.523 0.3262-0.7614 1.412-0.7614h1.629q0.7604 0 1.303 0.2177 0.6517 0.2177 1.303 1.305l13.25 20.01q1.955 2.937 2.933 4.024 1.086 1.088 3.476 1.088 2.39 0 3.367-1.088 1.086-1.088 3.041-4.024l13.25-20.01q0.6517-1.088 1.195-1.305 0.5431-0.2177 1.303-0.2177h1.629q1.195 0 1.521 0.7614 0.3262 0.6526 0.3262 1.523v55.36h1.086v-55.36q0-3.372-2.933-3.372h-1.847q-0.8689 0-1.738 0.4354-0.7603 0.3264-1.412 1.414l-13.25 20.23q-1.847 2.828-2.715 3.698-0.869 0.8701-2.824 0.8701zm74.73 41.88h-16.84q-3.91 0-3.91-3.916v-70.48q0-3.916 3.91-3.916h33.24q9.884 0 15.42 2.719 5.648 2.61 7.929 7.396 2.281 4.786 2.281 11.09v13.92q0 6.309-2.281 11.09-2.281 4.786-7.929 7.505-5.539 2.61-15.42 2.61h-12.49v18.06q0 3.916-3.91 3.916zm-7.495-31.22h22.38q6.843 0 10.32-1.849 3.584-1.849 4.779-5.112 1.195-3.263 1.195-7.505v-8.049q0-4.242-1.195-7.505-1.195-3.372-4.779-5.33-3.476-1.958-10.32-1.958h-23.46v58.73h1.086zm22.38-1.088h-22.38v-35.13h22.38q6.408 0 9.667 1.849 3.259 1.74 4.345 4.895 1.195 3.045 1.195 6.961v8.049q0 3.916-1.195 6.961-1.086 3.045-4.345 4.786-3.259 1.632-9.667 1.632zm-11.19-25.67v16.42h9.776q3.15 0 4.127-1.631 0.9776-1.632 0.9776-3.698v-5.765q0-2.175-0.9776-3.698-0.9776-1.631-4.127-1.631zm116.2 37.42q0 5.003-1.521 9.136-1.412 4.024-5.214 6.961-3.693 2.937-10.21 4.459-6.517 1.632-16.62 1.632-10.1 0-16.62-1.632-6.517-1.523-10.32-4.459-3.693-2.937-5.214-6.961-1.412-4.133-1.412-9.136v-53.84q0-3.916 3.91-3.916h17.05q3.91 0 3.91 3.916v49.6q0 2.175 1.629 3.698 1.629 1.414 7.277 1.414 5.757 0 7.386-1.414 1.629-1.523 1.629-3.698v-49.6q0-3.916 3.91-3.916h16.51q3.91 0 3.91 3.916zm-55.18-47.97v45.36q0 4.351 1.847 7.722 1.955 3.263 6.626 5.112 4.779 1.849 13.25 1.849 8.581 0 13.25-1.849 4.779-1.849 6.626-5.112 1.955-3.372 1.955-7.722v-45.36h-1.086v45.36q0 4.024-1.846 7.179-1.738 3.046-6.3 4.786-4.453 1.632-12.6 1.632-8.038 0-12.6-1.632-4.453-1.74-6.3-4.786-1.738-3.154-1.738-7.179v-45.36zm106.6 68.52h-17.6q-3.91 0-3.91-3.916v-53.4h-15.97q-3.91 0-3.91-3.916v-13.16q0-3.916 3.91-3.916h57.35q3.91 0 3.91 3.916v13.16q0 3.916-3.91 3.916h-15.97v53.4q0 3.916-3.91 3.916zm-9.341-9.789h1.086v-57.65h22.27v-1.088h-45.62v1.088h22.27zm97.97 9.789h-50.4q-3.91 0-3.91-3.916v-70.48q0-3.916 3.91-3.916h50.4q3.91 0 3.91 3.916v12.73q0 3.916-3.91 3.916h-29.98v8.375h21.18q3.91 0 3.91 3.916v11.64q0 3.916-3.91 3.916h-21.18v9.354h29.98q3.91 0 3.91 3.916v12.73q0 3.916-3.91 3.916zm-5.865-10.88h-35.52v-28.17h26.72v-1.088h-26.72v-27.3h35.52v-1.088h-36.6v58.73h36.6zm46.49-17.62h-16.84q-3.91 0-4.019-3.916l-1.629-41.98q-0.1085-3.916 3.693-3.916h20.75q3.802 0 3.693 3.916l-1.521 41.98q-0.1089 3.916-4.127 3.916zm1.629 28.5h-19.99q-3.91 0-3.91-3.916v-14.25q0-3.916 3.91-3.916h19.99q3.91 0 3.91 3.916v14.25q0 3.916-3.91 3.916zm-9.45-68.52h-1.086v30.24h1.086zm-1.086 59.82h1.086v-4.677h-1.086z" fill="#fff4dc" stroke-opacity=".698" stroke-width=".2646" aria-label="COMPUTE!"/>
  </g>
  <g transform="matrix(2.502 0 0 2.505 -485.9 -966.1)" fill="#eacf6a" stroke-width=".3995">
    <g stroke-linecap="round" stroke-linejoin="round" stroke-width=".1057">
      <path class="tx-sd" style="animation-delay:0s" d="m269.8 404.1c-0.1179 7e-5 -0.2212 0.0791-0.2518 0.1931l-0.5864 2.177c-0.0715 0.2657-0.1054 0.3719-0.1448 0.4327-0.0426 0.0655-0.0984 0.1211-0.164 0.164-0.0609 0.0395-0.167 0.0734-0.4327 0.1448l-2.177 0.586c-0.2582 0.0689-0.2582 0.4354 0 0.5044l2.177 0.586c0.2656 0.0715 0.3719 0.1054 0.4327 0.1448 0.0655 0.0426 0.1211 0.0984 0.164 0.164 0.0395 0.0609 0.0734 0.167 0.1448 0.4327l0.5864 2.177c0.0695 0.2573 0.4345 0.2573 0.5041 0l0.5863-2.177c0.0715-0.2657 0.105-0.3719 0.1445-0.4327 0.0426-0.0655 0.0985-0.1211 0.1643-0.164 0.0608-0.0395 0.167-0.0734 0.4327-0.1448l2.177-0.586c0.2582-0.0691 0.2582-0.4354 0-0.5044l-2.177-0.586c-0.2656-0.0715-0.3719-0.1054-0.4327-0.1448-0.0655-0.0426-0.1218-0.0984-0.1643-0.164-0.0395-0.0609-0.0731-0.167-0.1445-0.4327l-0.5863-2.177c-0.0308-0.1139-0.1343-0.1931-0.2523-0.1931z" stop-color="#000000"/>
      <path class="tx-sd" style="animation-delay:0.6s" d="m338.6 448.4c-0.0612 5e-5 -0.1149 0.0411-0.1308 0.1003l-0.3046 1.131c-0.0371 0.138-0.0547 0.1932-0.0752 0.2248-0.0221 0.0341-0.0511 0.0629-0.0852 0.085-0.0316 0.0205-0.0868 0.0381-0.2248 0.0752l-1.131 0.3044c-0.1341 0.0358-0.1341 0.2262 0 0.262l1.131 0.3044c0.138 0.0371 0.1932 0.0547 0.2248 0.0752 0.0341 0.0221 0.0629 0.0511 0.0852 0.0852 0.0205 0.0316 0.0381 0.0868 0.0752 0.2248l0.3046 1.131c0.0361 0.1337 0.2257 0.1337 0.2619 0l0.3046-1.131c0.0371-0.138 0.0546-0.1932 0.0751-0.2248 0.0221-0.0341 0.0512-0.0629 0.0853-0.0852 0.0317-0.0205 0.0867-0.0381 0.2248-0.0752l1.131-0.3044c0.1341-0.0358 0.1341-0.2262 0-0.262l-1.131-0.3044c-0.138-0.0371-0.1932-0.0547-0.2248-0.0752-0.0341-0.0221-0.0632-0.0511-0.0853-0.085-0.0205-0.0316-0.038-0.0867-0.0751-0.2248l-0.3046-1.131c-0.0161-0.0592-0.0697-0.1003-0.1311-0.1003z" stop-color="#000000"/>
      <path class="tx-sd" style="animation-delay:1.2s" d="m360.3 402.8c-0.0612 5e-5 -0.1149 0.0411-0.1308 0.1003l-0.3046 1.131c-0.0371 0.138-0.0547 0.1932-0.0752 0.2248-0.0221 0.0341-0.0511 0.0629-0.0852 0.085-0.0316 0.0205-0.0868 0.0381-0.2248 0.0752l-1.131 0.3044c-0.1341 0.0358-0.1341 0.2262 0 0.262l1.131 0.3044c0.138 0.0371 0.1932 0.0547 0.2248 0.0752 0.0341 0.0221 0.0629 0.0511 0.0852 0.0852 0.0205 0.0316 0.0381 0.0868 0.0752 0.2248l0.3046 1.131c0.0361 0.1337 0.2257 0.1337 0.2619 0l0.3046-1.131c0.0371-0.138 0.0546-0.1932 0.0751-0.2248 0.0221-0.0341 0.0512-0.0629 0.0853-0.0852 0.0317-0.0205 0.0867-0.0381 0.2248-0.0752l1.131-0.3044c0.1341-0.0358 0.1341-0.2262 0-0.262l-1.131-0.3044c-0.138-0.0371-0.1932-0.0547-0.2248-0.0752-0.0341-0.0221-0.0632-0.0511-0.0853-0.085-0.0205-0.0316-0.038-0.0867-0.0751-0.2248l-0.3046-1.131c-0.0161-0.0592-0.0697-0.1003-0.1311-0.1003z" stop-color="#000000"/>
      <path class="tx-sd" style="animation-delay:1.8s" d="m429.1 403.9c-0.0777 5e-5 -0.1458 0.0521-0.166 0.1274l-0.3867 1.436c-0.0471 0.1752-0.0693 0.2452-0.0954 0.2854-0.028 0.0433-0.0648 0.0798-0.1081 0.1079-0.0402 0.0261-0.1102 0.0483-0.2854 0.0954l-1.436 0.3865c-0.1702 0.0454-0.1702 0.2871 0 0.3327l1.436 0.3865c0.1752 0.0471 0.2453 0.0694 0.2854 0.0954 0.0433 0.028 0.0798 0.0648 0.1081 0.1081 0.0261 0.0401 0.0483 0.1102 0.0954 0.2854l0.3867 1.436c0.0459 0.1697 0.2866 0.1697 0.3324 0l0.3867-1.436c0.0471-0.1752 0.0693-0.2453 0.0954-0.2854 0.028-0.0433 0.065-0.0798 0.1083-0.1081 0.0403-0.0261 0.11-0.0483 0.2854-0.0954l1.436-0.3865c0.1702-0.0454 0.1702-0.2872 0-0.3327l-1.436-0.3865c-0.1752-0.0471-0.2453-0.0694-0.2854-0.0954-0.0433-0.028-0.0803-0.0648-0.1083-0.1079-0.0261-0.0402-0.0483-0.11-0.0954-0.2854l-0.3867-1.436c-0.0205-0.0751-0.0885-0.1274-0.1664-0.1274z" stop-color="#000000"/>
      <path class="tx-sd" style="animation-delay:0.4s" d="m247.1 453.7c-0.0447 3e-5 -0.0839 0.03-0.0955 0.0733l-0.2225 0.8262c-0.0271 0.1008-0.0399 0.1411-0.0549 0.1642-0.0161 0.0249-0.0373 0.0459-0.0622 0.0621-0.0231 0.015-0.0634 0.0278-0.1642 0.0549l-0.8262 0.2223c-0.0979 0.0261-0.0979 0.1652 0 0.1914l0.8262 0.2223c0.1008 0.0271 0.1411 0.0399 0.1642 0.0549 0.0249 0.0161 0.0459 0.0373 0.0622 0.0622 0.015 0.0231 0.0278 0.0634 0.0549 0.1642l0.2225 0.8261c0.0264 0.0976 0.1649 0.0976 0.1912 0l0.2225-0.8261c0.0271-0.1008 0.0399-0.1411 0.0549-0.1642 0.0161-0.0249 0.0374-0.0459 0.0623-0.0622 0.0232-0.015 0.0633-0.0278 0.1642-0.0549l0.826-0.2223c0.0979-0.0261 0.0979-0.1652 0-0.1914l-0.826-0.2223c-0.1008-0.0271-0.1411-0.0399-0.1642-0.0549-0.0249-0.0161-0.0462-0.0373-0.0623-0.0621-0.015-0.0231-0.0278-0.0633-0.0549-0.1642l-0.2225-0.8262c-0.0118-0.0432-0.0509-0.0733-0.0957-0.0733z" stop-color="#000000"/>
    </g>
    <circle class="tx-sd" style="animation-delay:0.9s" cx="230.5" cy="432.9" r=".6323" style="paint-order:normal"/>
    <circle class="tx-sd" style="animation-delay:1.5s" cx="445.1" cy="428.4" r=".9676" style="paint-order:normal"/>
    <circle class="tx-sd" style="animation-delay:0.2s" cx="325.2" cy="423.6" r=".4742" style="paint-order:normal"/>
  </g>
</svg>
