<svg width="32" height="32" version="1.1" viewBox="0 0 32 32" xmlns="http://www.w3.org/2000/svg">
  <defs>
    <style>
      @keyframes fv-float {
        0%,100% { transform: translateY(0px);  }
        50%      { transform: translateY(-3px); }
      }
      @keyframes fv-blink {
        0%,100% { opacity: 0.4; }
        50%      { opacity: 1;   }
      }
      #fv-float { animation: fv-float 4s ease-in-out infinite;
                  transform-box: fill-box; transform-origin: center; }
      .fv-sd    { animation: fv-blink 2.4s ease-in-out infinite; }
    </style>
    <filter id="filter14-0" x="-.04913" y="-.06216" width="1.098" height="1.124" color-interpolation-filters="sRGB">
      <feGaussianBlur stdDeviation="3.060517"/>
    </filter>
  </defs>
  <path d="m16 0.9954a15 15 0 0 0-15 15 15 15 0 0 0 15 15 15 15 0 0 0 15-15 15 15 0 0 0-15-15z" fill="#1f5f9a"/>
  <g id="fv-float">
  <path d="m16-1e-5c-8.833 0-16 7.167-16 16 0 8.833 7.167 16 16 16 8.833 0 16-7.167 16-16 0-8.833-7.167-16-16-16zm0 0.6409c8.486 0 15.36 6.873 15.36 15.36 0 8.487-6.873 15.36-15.36 15.36-8.486 0-15.36-6.873-15.36-15.36 0-8.487 6.873-15.36 15.36-15.36z" fill="#27414d" fill-opacity=".9" stop-color="#000000" stroke-linecap="round" stroke-linejoin="round" style="paint-order:stroke fill markers"/>
  <g transform="matrix(.064 0 0 .064 0 -9.36e-6)" stroke-linecap="round" stroke-linejoin="round" stroke-width="15.83">
    <path d="m461.4 351.4h-422.7a234.4 234.4 0 0 0 211.4 133 234.4 234.4 0 0 0 211.4-133z" fill="#ff4b00" stop-color="#000000"/>
    <path d="m478.7 301.7h-457.4a234.4 234.4 0 0 0 11.3 36.15h434.8a234.4 234.4 0 0 0 11.3-36.15z" fill="#fa690d" stop-color="#000000"/>
    <path d="m483.7 268.6h-467.4a234.4 234.4 0 0 0 2.916 22.61h461.6a234.4 234.4 0 0 0 2.916-22.61z" fill="#f5881b" stop-color="#000000"/>
    <path d="m484.4 249.2h-468.9a234.4 234.4 0 0 0-2e-3 0.7695 234.4 234.4 0 0 0 0.2363 10.53h468.4a234.4 234.4 0 0 0 0.2363-10.53 234.4 234.4 0 0 0-2e-3 -0.7695z" fill="#efa628" stop-color="#000000"/>
    <path d="m484 235.2h-468a234.4 234.4 0 0 0-0.3281 6.77h468.6a234.4 234.4 0 0 0-0.3281-6.77z" fill="#eac435" stop-color="#000000"/>
    <path d="m483.5 228.7h-466.9a234.4 234.4 0 0 0-0.1953 2.252h467.3a234.4 234.4 0 0 0-0.1953-2.252z" fill="#eac435" stop-color="#000000"/>
  </g>
  <path transform="matrix(.146 0 0 .1462 -9.924 -79.96)" d="m183.3 715.6h-40.04c-13.79 0-23.96-2.735-30.52-8.205s-9.846-13.89-9.846-25.27v-51.04c0-11.49 3.282-19.97 9.846-25.44s16.74-8.205 30.52-8.205h40.04c3.939 0 5.908 1.969 5.908 5.908v19.86c0 3.939-1.969 5.908-5.908 5.908h-32.99c-6.674 0-10.01 2.735-10.01 8.205v39.06c0 5.251 3.337 7.877 10.01 7.877h32.99c3.939 0 5.908 1.969 5.908 5.908v19.53c0 3.939-1.969 5.908-5.908 5.908zm-4.97-8.092 0.6577-15.87-30.69 1.095c-6.56 0.234-11.43 1.259-15.04 0.0558-3.501-1.313-1.688-0.5454-3.11-3.39-1.313-2.954-1.615-4.156-1.64-8.86l-0.2192-40.59c-0.0266-4.923-2.029-10.01-0.607-12.86 1.422-2.954 0.8146-3.5 4.316-4.704 3.61-1.313 8.33-0.5281 14.77-0.9841l30.91-2.189-0.6577-13.24-30.69-2.299c-6.982-0.5229-15.16 4.542-18.99 5.965-3.72 1.422-10.29 7.88-11.82 11.05-1.422 3.063-3.402 9.848-3.339 15.1l0.5481 45.95c0.06 5.032 4.438 12.64 5.86 15.81 1.422 3.063 7.83 7.167 11.55 8.589 3.829 1.422 10.87 3.926 17.73 2.024zm65.53-34.9h-25.44c-3.939 0-5.963-1.969-6.072-5.908l-2.462-63.35c-0.1094-3.939 1.75-5.908 5.58-5.908h31.34c3.829 0 5.689 1.969 5.58 5.908l-2.298 63.35c-0.1094 3.939-2.188 5.908-6.236 5.908zm2.462 43h-30.2c-3.939 0-5.908-1.969-5.908-5.908v-21.5c0-3.939 1.969-5.908 5.908-5.908h30.2c3.939 0 5.908 1.969 5.908 5.908v21.5c0 3.939-1.969 5.908-5.908 5.908zm-2.877-106.5-22.25 0.7663 1.096 51.2 20.5 1.423zm-23.35 98.25 21.92-0.5473-2.302-16.47-17.43 0.7663z" fill="#18009a" opacity=".4544" stroke-linecap="round" stroke-linejoin="round" stroke-width="13.69" style="inline-size:358.263;white-space:pre" aria-label="C!"/>
  <path d="m16.81 24.63h-5.845q-3.018 0-4.455-1.199-1.437-1.199-1.437-3.694v-7.46q0-2.519 1.437-3.718 1.437-1.199 4.455-1.199h5.845q0.8623 0 0.8623 0.8635v2.902q0 0.8635-0.8623 0.8635h-4.815q-1.461 0-1.461 1.199v5.709q0 1.151 1.461 1.151h4.815q0.8623 0 0.8623 0.8635v2.854q0 0.8635-0.8623 0.8635zm-1.317-2.159v-0.2399h-4q-1.437 0-2.228-0.2639-0.7665-0.2878-1.078-0.9115-0.2874-0.6476-0.2874-1.679v-6.716q0-1.079 0.3114-1.703 0.3114-0.6476 1.078-0.9115 0.7905-0.2878 2.204-0.2878h4v-0.2399h-4q-1.533 0-2.371 0.3118-0.8144 0.3118-1.15 1.007-0.3114 0.6716-0.3114 1.823v6.716q0 1.103 0.3114 1.799 0.3114 0.6716 1.126 0.9834 0.8384 0.3118 2.395 0.3118zm10.16-4.126h-3.713q-0.8623 0-0.8863-0.8635l-0.3593-9.259q-0.02395-0.8635 0.8144-0.8635h4.575q0.8384 0 0.8144 0.8635l-0.3353 9.259q-0.02395 0.8635-0.9102 0.8635zm0.3593 6.284h-4.407q-0.8623 0-0.8623-0.8635v-3.142q0-0.8635 0.8623-0.8635h4.407q0.8623 0 0.8623 0.8635v3.142q0 0.8635-0.8623 0.8635zm-2.084-15.11h-0.2395v6.668h0.2395zm-0.2395 13.19h0.2395v-1.031h-0.2395z" fill="#fffaf0" stroke-linecap="round" stroke-linejoin="round" stroke-width="2" style="inline-size:358.263;white-space:pre" aria-label="C!"/>
  <g fill="#ead172" stroke-linecap="round" stroke-linejoin="round" stroke-width=".2646">
    <path class="fv-sd" style="animation-delay:0s" d="m19.43 4.141c-0.03277 2.37e-5 -0.06146 0.02202-0.07 0.05366l-0.163 0.6052c-0.01987 0.07384-0.02925 0.1033-0.04024 0.1203-0.01183 0.0182-0.02732 0.03369-0.04553 0.04553-0.0169 0.01099-0.04642 0.02036-0.1203 0.04024l-0.6052 0.1629c-0.07175 0.01919-0.07175 0.121 0 0.1402l0.6052 0.1629c0.07384 0.01988 0.1034 0.02926 0.1203 0.04024 0.0182 0.01183 0.0337 0.02732 0.04553 0.04553 0.01098 0.0169 0.02037 0.04642 0.04024 0.1203l0.163 0.6052c0.01932 0.07152 0.1208 0.07152 0.1401 0l0.163-0.6052c0.01988-0.07384 0.02917-0.1034 0.04015-0.1203 0.01183-0.0182 0.02742-0.0337 0.04562-0.04553 0.0169-0.01098 0.04642-0.02036 0.1203-0.04024l0.6051-0.1629c0.07175-0.01919 0.07175-0.121 0-0.1402l-0.6051-0.1629c-0.07384-0.01988-0.1034-0.02926-0.1203-0.04024-0.01821-0.01184-0.0338-0.02734-0.04562-0.04553-0.01099-0.01691-0.02027-0.04642-0.04015-0.1203l-0.163-0.6052c-0.0085-0.03168-0.03729-0.05368-0.0701-0.05366z" stop-color="#000000"/>
    <path class="fv-sd" style="animation-delay:0.8s" d="m14.14 1.805c-0.01555 1.13e-5 -0.02916 0.01045-0.03321 0.02546l-0.07732 0.2871c-0.0094 0.03504-0.01388 0.04904-0.01909 0.05706-0.0056 0.00864-0.01296 0.01599-0.0216 0.0216-8e-3 0.00522-0.02202 0.00966-0.05706 0.0191l-0.2871 0.07727c-0.03404 0.0091-0.03404 0.05741 0 0.06652l0.2871 0.07727c0.03503 0.00943 0.04904 0.01388 0.05706 0.0191 0.0086 0.00561 0.01599 0.01296 0.0216 0.0216 0.0052 0.00802 0.0097 0.02202 0.01909 0.05706l0.07732 0.2871c0.0092 0.03393 0.05731 0.03393 0.06647 0l0.07732-0.2871c0.0094-0.03504 0.01384-0.04904 0.01905-0.05706 0.0056-0.00864 0.01301-0.01599 0.02165-0.0216 8e-3 -0.00521 0.02202-0.00966 0.05706-0.0191l0.2871-0.07727c0.03404-0.0091 0.03404-0.05741 0-0.06652l-0.2871-0.07727c-0.03504-0.00943-0.04904-0.01388-0.05706-0.0191-0.0086-0.00562-0.01604-0.01297-0.02165-0.0216-0.0052-0.00802-0.0096-0.02202-0.01905-0.05706l-0.07732-0.2871c-0.0041-0.01503-0.01769-0.02547-0.03326-0.02546z" stop-color="#000000"/>
    <path class="fv-sd" style="animation-delay:1.5s" d="m7.171 5.902c-0.00913 6.7e-6 -0.01713 0.00614-0.01951 0.01495l-0.04542 0.1687c-0.00554 0.02058-0.00815 0.0288-0.01122 0.03352-0.0033 0.00507-0.00761 0.00939-0.01269 0.01269-0.00471 0.00306-0.01294 0.00568-0.03352 0.01122l-0.1687 0.04539c-0.02 0.00535-0.02 0.03372 0 0.03907l0.1687 0.04539c0.02058 0.00554 0.0288 0.00815 0.03352 0.01122 0.00508 0.0033 0.00939 0.00762 0.01269 0.01269 0.00306 0.00471 0.00568 0.01294 0.01122 0.03352l0.04542 0.1687c0.00538 0.01993 0.03366 0.01993 0.03904 0l0.04542-0.1687c0.00554-0.02058 0.00813-0.0288 0.01119-0.03352 0.0033-0.00507 0.00764-0.00939 0.01272-0.01269 0.00471-0.00306 0.01294-0.00568 0.03352-0.01122l0.1686-0.04539c0.02-0.00535 0.02-0.03372 0-0.03907l-0.1686-0.04539c-0.02058-0.00554-0.02881-0.00815-0.03352-0.01122-0.00508-0.0033-0.00942-0.00762-0.01272-0.01269-0.00307-0.00471-0.00565-0.01294-0.01119-0.03352l-0.04541-0.1687c-0.00238-0.00883-0.01039-0.01496-0.01954-0.01495z" stop-color="#000000"/>
  </g>
  </g>
</svg>
