<svg width="500" height="500" version="1.1" viewBox="0 0 500 500" xmlns="http://www.w3.org/2000/svg" xmlns:xlink="http://www.w3.org/1999/xlink">
  <defs>
    <style>
      @keyframes saucer-float {
        0%,100% { transform: translateY(0px);   }
        50%      { transform: translateY(-12px); }
      }
      @keyframes star-blink {
        0%,100% { opacity: 0.45; }
        50%      { opacity: 1;    }
      }
      @keyframes beam-pulse {
        0%,100% { fill-opacity: .30; }
        50%      { fill-opacity: .80; }
      }
      @keyframes glow-ring {
        0%,100% { fill: #eac435; }
        50%      { fill: #ff6a00; }
      }
      @keyframes saucer-shimmer {
        0%,100% { fill: #b3dff5; }
        50%      { fill: #d8f2ff; }
      }
      @keyframes dome-sweep {
        0%,100% { fill-opacity: .12; }
        50%      { fill-opacity: .55; }
      }

      @keyframes dome-arc-glow {
        0%,100% { fill-opacity: .10; stroke-opacity: .35; }
        50%      { fill-opacity: .30; stroke-opacity: .80; }
      }
      #ml-float { }
      .ml-sd         { animation: star-blink 2.6s ease-in-out infinite; }
      .ml-beam       { animation: beam-pulse 3.0s ease-in-out infinite; }
      #ml-saucer-glow { animation: glow-ring 2.8s ease-in-out infinite; }
      #ml-saucer-body { animation: saucer-shimmer 5s ease-in-out infinite; }
      #ml-dome        { animation: dome-sweep 4s ease-in-out infinite; }

      #ml-dome-arc    { animation: dome-arc-glow 3.5s ease-in-out infinite; }
    </style>
    <linearGradient id="linearGradient6-5" x1="379.4" x2="296.4" y1="444.6" y2="734.8" gradientTransform="matrix(1.001 0 0 1.001 -90.21 -225.4)" gradientUnits="userSpaceOnUse">
      <stop stop-color="#eac435" stop-opacity=".6275" offset="0"/>
      <stop stop-color="#ff4b00" stop-opacity=".1962" offset="1"/>
    </linearGradient>
    <filter id="filter24" x="-.0065" y="-.01646" width="1.013" height="1.033" color-interpolation-filters="sRGB">
      <feGaussianBlur stdDeviation="1.1366642"/>
    </filter>
    <linearGradient id="linearGradient412" x1="424.1" x2="374.9" y1="512.4" y2="523.7" gradientUnits="userSpaceOnUse">
      <stop stop-color="#fff3d8" offset="0"/>
      <stop stop-color="#fff3d8" stop-opacity=".3263" offset="1"/>
    </linearGradient>
  </defs>
  <g id="ml-float">
  <path d="m250 15.56a234.4 234.4 0 0 0-234.4 234.4 234.4 234.4 0 0 0 234.4 234.4 234.4 234.4 0 0 0 234.4-234.4 234.4 234.4 0 0 0-234.4-234.4z" fill="#1f5f9a"/>
  <path d="m27.57 324.1a234.4 234.4 0 0 0 0.334 0.9961h444.2a234.4 234.4 0 0 0 0.334-0.9961zm0.9902 2.91a234.4 234.4 0 0 0 1.066 3.002h440.8a234.4 234.4 0 0 0 1.066-3.002zm2.254 6.201a234.4 234.4 0 0 0 1.965 5.004h434.4a234.4 234.4 0 0 0 1.965-5.004zm3.461 8.602a234.4 234.4 0 0 0 4.541 10.01h422.4a234.4 234.4 0 0 0 4.541-10.01zm6.828 14.62a234.4 234.4 0 0 0 8.963 16.02h399.9a234.4 234.4 0 0 0 8.963-16.02zm12.78 22.04a234.4 234.4 0 0 0 196.1 106 234.4 234.4 0 0 0 196.1-106z" class="ml-beam" fill="#2c7ad9" fill-opacity=".6" stop-color="#000000" stroke-linecap="round" stroke-linejoin="round"/>
  <g>
    <g stroke-linecap="round" stroke-linejoin="round">
      <path transform="matrix(1.001 0 0 1.001 -81.33 -222.5)" d="m185 388.5-8.589 17.41c-2.957 5.994-6.329 9.831-10.12 11.51-3.787 1.681-8.154 1.301-13.1-1.14l-22.19-10.95c-4.995-2.464-7.977-5.71-8.948-9.738-0.9705-4.028 0.0228-9.038 2.98-15.03l8.589-17.41c0.8449-1.713 2.124-2.146 3.836-1.302l8.634 4.259c1.713 0.8448 2.146 2.123 1.302 3.836l-7.076 14.34c-1.432 2.902-0.9581 4.939 1.42 6.113l16.98 8.378c2.283 1.126 4.141 0.2388 5.572-2.663l7.076-14.34c0.8448-1.713 2.124-2.146 3.836-1.301l8.491 4.189c1.713 0.8449 2.146 2.124 1.302 3.836zm29.34-55.27c1.744 1.706 3.078 3.529 3.999 5.469 0.921 1.865 1.263 3.943 1.026 6.234-0.237 2.291-1.221 4.852-2.953 7.685-1.656 2.832-4.228 6.03-7.714 9.595-3.486 3.565-6.645 6.226-9.476 7.983-2.756 1.756-5.277 2.778-7.562 3.066-2.285 0.2879-4.389 0.0113-6.311-0.8299-1.96-0.8784-3.813-2.171-5.557-3.877l-19.4-18.97c-1.744-1.706-3.059-3.511-3.943-5.414-0.9219-1.94-1.264-4.056-1.027-6.347 0.237-2.291 1.184-4.852 2.84-7.684 1.693-2.87 4.283-6.087 7.77-9.652 3.486-3.565 6.626-6.207 9.42-7.926 2.831-1.757 5.389-2.78 7.674-3.068 2.285-0.2879 4.389 0.0262 6.312 0.9424 1.922 0.8413 3.756 2.115 5.5 3.821zm-23.97 20.41c0.7585 0.7417 1.681 1.088 2.769 1.038 1.049-0.0867 2.575-1.154 4.578-3.202 2.04-2.086 3.073-3.635 3.099-4.648 0.0254-1.088-0.3411-2.003-1.1-2.745l-15.3-14.96c-0.7585-0.7418-1.662-1.069-2.712-0.9826-1.012 0.0489-2.538 1.116-4.578 3.202-2.003 2.048-3.036 3.597-3.099 4.648-0.0633 1.051 0.2842 1.947 1.043 2.689zm56.45-22.66-10.79 4.921c-1.737 0.7927-3.002 0.3204-3.795-1.417l-21.4-46.91c-0.7927-1.737-0.3204-3.002 1.417-3.795l11.65-5.318c1.448-0.6605 2.888-0.4431 4.321 0.6523l11.9 8.826c0.4395 0.3242 0.7756 0.5498 1.008 0.6768 0.2811 0.1048 0.5664 0.0911 0.856-0.0412l0.6515-0.2971c0.2895-0.132 0.4627-0.3276 0.5194-0.5868 0.105-0.2811 0.179-0.6939 0.2221-1.238l1.059-14.74c0.1115-1.8 0.8912-3.03 2.339-3.691l11.73-5.351c1.737-0.7927 3.002-0.3205 3.795 1.417l21.4 46.91c0.7927 1.737 0.3205 3.002-1.417 3.795l-11.15 5.087c-1.737 0.7927-3.002 0.3204-3.795-1.417l-11.63-25.48-0.6706 9.839c-0.1157 1.919-1.042 3.274-2.78 4.067l-2.895 1.321c-1.737 0.7928-3.368 0.6042-4.893-0.5657l-7.871-5.941 11.63 25.48c0.7927 1.737 0.3204 3.002-1.417 3.795zm64.62-20.17-12.3 0.8921c-1.905 0.1386-2.926-0.7446-3.064-2.65l-3.73-51.42c-0.1382-1.905 0.745-2.926 2.65-3.064l24.28-1.761c4.814-0.3492 8.619 0.0397 11.41 1.167 2.843 1.07 4.905 2.729 6.184 4.976 1.28 2.247 2.031 4.905 2.254 7.974l0.7367 10.16c0.2225 3.068-0.1373 5.807-1.079 8.215-0.9422 2.408-2.741 4.374-5.396 5.896-2.606 1.465-6.316 2.373-11.13 2.722l-9.126 0.6619 0.9554 13.17c0.1382 1.905-0.745 2.926-2.65 3.064zm-0.3695-42.49 0.8691 11.98 7.142-0.518c1.534-0.1114 2.511-0.5811 2.929-1.409 0.4186-0.8281 0.5914-1.745 0.5185-2.75l-0.305-4.206c-0.0768-1.058-0.3801-1.94-0.9099-2.646-0.5337-0.7591-1.568-1.083-3.102-0.9717zm90.72 39.08c-0.6258 2.358-1.556 4.417-2.791 6.174-1.17 1.72-2.836 3.034-4.997 3.942-2.11 0.9218-4.799 1.333-8.066 1.235-3.28-0.0474-7.304-0.7035-12.07-1.968-4.768-1.265-8.588-2.69-11.46-4.276-2.886-1.534-5.042-3.231-6.469-5.092-1.376-1.847-2.171-3.814-2.386-5.901-0.1495-2.125 0.0885-4.367 0.7143-6.725l10.1-38.07c0.4897-1.846 1.657-2.524 3.503-2.034l12.07 3.204c1.846 0.4897 2.524 1.657 2.034 3.503l-9.305 35.07c-0.2721 1.025-0.1188 1.999 0.4598 2.921 0.5922 0.8706 2.221 1.66 4.887 2.367 2.717 0.721 4.549 0.8502 5.495 0.3877 0.9595-0.5137 1.575-1.283 1.847-2.309l9.305-35.07c0.4897-1.846 1.657-2.524 3.503-2.034l11.69 3.102c1.846 0.4897 2.524 1.657 2.034 3.503zm28.41 34.54-10.75-7.118c-1.592-1.055-1.861-2.378-0.806-3.97l21.57-32.57-9.751-6.459c-1.592-1.055-1.861-2.378-0.8061-3.97l5.317-8.026c1.055-1.592 2.378-1.861 3.97-0.806l35.02 23.2c1.592 1.055 1.861 2.378 0.8059 3.97l-5.317 8.026c-1.055 1.592-2.378 1.861-3.97 0.8061l-9.751-6.459-21.57 32.57c-1.055 1.592-2.378 1.861-3.97 0.8061zm45.19 46.3-23.25-28.67c-1.203-1.483-1.063-2.826 0.4205-4.029l40.05-32.48c1.483-1.203 2.826-1.063 4.029 0.4205l23.25 28.67c1.203 1.483 1.063 2.826-0.4206 4.029l-7.23 5.864c-1.483 1.203-2.826 1.063-4.029-0.4206l-13.83-17.06-4.758 3.859 9.773 12.05c1.203 1.483 1.063 2.826-0.4206 4.029l-6.612 5.362c-1.483 1.203-2.826 1.063-4.029-0.4206l-9.773-12.05-5.315 4.31 13.83 17.06c1.203 1.483 1.063 2.826-0.4206 4.029l-7.23 5.864c-1.483 1.203-2.826 1.063-4.029-0.4206zm31.95 18.23-5.152-11.21c-0.7977-1.735-0.3401-3.025 1.373-3.871l27.41-13.91c1.713-0.8458 2.957-0.4254 3.733 1.261l6.348 13.81c0.7756 1.687 0.2847 2.905-1.472 3.654l-28.37 11.82c-1.757 0.7495-3.046 0.2326-3.866-1.551zm-18.44 9.793-6.116-13.3c-0.7977-1.735-0.3291-3.001 1.406-3.799l9.47-4.354c1.735-0.7977 3.001-0.3291 3.799 1.406l6.116 13.3c0.7977 1.735 0.329 3.001-1.406 3.799l-9.47 4.354c-1.735 0.7977-3.001 0.3291-3.799-1.406z" fill="#1b170e" opacity=".3629" stroke-width="13.34" style="white-space:pre" aria-label="COMPUTE!"/>
      <path d="m248 33.63-26.88 1.249a2.5 2.5 0 0 0-2.376 2.689l1.996 26.19a2.5 2.5 0 0 0-0.1134 0.393 2.5 2.5 0 0 0 0.1662 0.3031l1.201 15.74a2.5 2.5 0 0 0 2.683 2.303 2.5 2.5 0 0 0 2.301-2.683l-1.046-13.73 25.7-2.843a2.5 2.5 0 0 0 2.204-2.812l-3.25-24.63a2.5 2.5 0 0 0-2.595-2.17zm43.97 2.857a2.5 2.5 0 0 0-3.125 1.658s-2.554 8.319-4.82 17.36c-1.133 4.522-2.196 9.224-2.839 13.23-0.3213 2.003-0.539 3.828-0.5983 5.424-0.0594 1.596-0.0604 2.915 0.5338 4.317 0.9786 2.309 2.964 3.77 5.273 5.076 2.309 1.306 5.057 2.375 7.897 3.201s5.762 1.402 8.416 1.64 4.985 0.2308 7.047-0.5592c1.726-0.6613 2.508-1.896 3.347-3.287 0.8393-1.391 1.607-3.08 2.362-5.006 1.511-3.852 2.947-8.641 4.216-13.36 2.537-9.432 4.382-18.57 4.382-18.57a2.5 2.5 0 0 0-1.955-2.945 2.5 2.5 0 0 0-2.947 1.955s-1.825 9.018-4.309 18.25c-1.242 4.619-2.654 9.293-4.042 12.83-0.6938 1.769-1.389 3.258-1.987 4.249-0.598 0.9911-1.23 1.343-0.8564 1.201-0.644 0.2467-2.553 0.4511-4.81 0.2483-2.257-0.2027-4.918-0.7191-7.467-1.461-2.549-0.7415-4.998-1.716-6.832-2.753-1.834-1.037-2.939-2.218-3.132-2.675 8e-3 0.01902-0.1881-0.9075-0.1408-2.18 0.0473-1.273 0.2385-2.94 0.5397-4.818 0.6024-3.755 1.638-8.364 2.751-12.81 2.226-8.885 4.751-17.11 4.751-17.11a2.5 2.5 0 0 0-1.656-3.125zm-46.04 2.245 2.616 19.82-23 2.544-1.627-21.34zm-72.5 7.379-3.5 1.625a2.5 2.5 0 0 0-1.427 1.942l-2.802 21.37-1.551 0.5651-18.34-11.48a2.5 2.5 0 0 0-2.354-0.1603l-3.875 1.75a2.5 2.5 0 0 0-1.251 3.304l17.5 38.88a2.5 2.5 0 0 0 3.304 1.253 2.5 2.5 0 0 0 1.253-3.306l-16.48-36.6 0.3793-0.1721 18.24 11.42a2.5 2.5 0 0 0 2.18 0.2307l4.126-1.5a2.5 2.5 0 0 0 1.623-2.024l2.822-21.51 0.0156-8e-3 17.31 36.03a2.5 2.5 0 0 0 3.336 1.171 2.5 2.5 0 0 0 1.171-3.336l-18.37-38.25a2.5 2.5 0 0 0-3.306-1.185zm186.1 15.44a2.5 2.5 0 0 0-3.469 0.6902 2.5 2.5 0 0 0 0.6902 3.469l11.89 7.944-22.2 32.83a2.5 2.5 0 0 0 0.6707 3.473 2.5 2.5 0 0 0 3.471-0.6707l22.21-32.85 11.83 7.901a2.5 2.5 0 0 0 3.469-0.6902 2.5 2.5 0 0 0-0.6902-3.467zm-256.1 30.34a2.5 2.5 0 0 0-2.382 0.07819c-4.172 2.446-11.7 8.816-19.63 19.68a2.5 2.5 0 0 0-0.2288 2.567c1.443 2.966 5.346 8.305 10.63 14.05 5.281 5.745 11.75 11.62 18.37 14.52a2.5 2.5 0 0 0 2.01-2e-3c5.758-2.536 10.35-6.809 13.73-11 3.381-4.189 5.533-8.181 6.392-10.91a2.5 2.5 0 0 0-0.3207-2.163c-3.712-5.425-17.71-21.39-28.57-26.82zm-1.023 5.217c8.308 4.844 20.98 18.58 24.62 23.39-0.7964 1.918-2.4 4.95-4.984 8.152-2.8 3.469-6.541 6.861-10.84 9.012-5.155-2.555-10.97-7.627-15.7-12.78-4.403-4.79-7.611-9.326-8.981-11.61 6.476-8.557 12.57-13.92 15.89-16.17zm312.8 9.037a2.5 2.5 0 0 0-1.856 0.5221l-16.03 12.71a2.5 2.5 0 0 0-0.5964 0.1721 2.5 2.5 0 0 0-0.2992 0.5377l-16.82 13.34a2.5 2.5 0 0 0-0.3754 3.549l17 20.62a2.5 2.5 0 0 0 3.52 0.3402 2.5 2.5 0 0 0 0.3383-3.52l-15.38-18.66 13.32-10.56 10.92 13.74a2.5 2.5 0 0 0 3.512 0.4008 2.5 2.5 0 0 0 0.4008-3.512l-10.92-13.73 12.53-9.933 14.58 18.87a2.5 2.5 0 0 0 3.508 0.4497 2.5 2.5 0 0 0 0.4497-3.508l-16.13-20.87a2.5 2.5 0 0 0-1.676-0.9522zm-356.7 37.99a2.5 2.5 0 0 0-3.347 1.136s-2.209 4.481-4.38 9.505c-1.085 2.512-2.165 5.159-2.968 7.508-0.8036 2.349-1.463 4.129-1.275 6.194a2.5 2.5 0 0 0 0.4145 1.167c3.271 4.869 9.733 8.579 16.58 11.71 6.852 3.129 14.08 5.47 18.93 6.583a2.5 2.5 0 0 0 1.255-0.0351c2.454-0.7104 3.773-2.537 5.273-4.628 1.5-2.091 2.934-4.611 4.216-7.07 2.564-4.919 4.501-9.624 4.501-9.624a2.5 2.5 0 0 0-1.359-3.265 2.5 2.5 0 0 0-3.263 1.359s-1.875 4.545-4.311 9.219c-1.218 2.337-2.581 4.702-3.846 6.466-1.12 1.561-2.087 2.242-2.301 2.427-4.429-1.09-10.9-3.187-17.02-5.979-6.091-2.782-11.55-6.325-13.96-9.34 0.07148-0.4349 0.2554-1.714 0.8877-3.563 0.7315-2.139 1.77-4.703 2.825-7.145 2.11-4.883 4.276-9.276 4.276-9.276a2.5 2.5 0 0 0-1.138-3.347zm392 18.21-20.38 9.125a2.5 2.5 0 0 0-1.259 3.302 2.5 2.5 0 0 0 3.304 1.261l20.37-9.125a2.5 2.5 0 0 0 1.259-3.304 2.5 2.5 0 0 0-3.302-1.259zm-35.84 16.68-5.127 1.875a2.5 2.5 0 0 0-1.488 3.207 2.5 2.5 0 0 0 3.207 1.488l5.125-1.875a2.5 2.5 0 0 0 1.49-3.207 2.5 2.5 0 0 0-3.207-1.488z" fill="#24619a" stop-color="#000000" stroke-width=".2646"/>
      <path d="m104.5 164.7-8.599 17.43q-4.44 9.001-10.13 11.52-5.686 2.524-13.12-1.141l-22.22-10.96q-7.501-3.7-8.958-9.748-1.457-6.048 2.983-15.05l8.599-17.43q1.269-2.572 3.84-1.303l8.644 4.264q2.572 1.269 1.303 3.84l-7.083 14.36q-2.15 4.358 1.422 6.12l17 8.387q3.429 1.692 5.579-2.666l7.083-14.36q1.269-2.572 3.84-1.303l8.501 4.194q2.572 1.269 1.303 3.84zm-8.367 0.7572-0.7143-0.3523-5.885 11.93q-2.114 4.286-4.063 6.256-1.985 1.863-4.3 1.875-2.352-0.0946-5.423-1.61l-20-9.868q-3.215-1.586-4.614-3.431-1.471-1.88-1.129-4.554 0.3057-2.78 2.385-6.995l5.885-11.93-0.7143-0.3526-5.885 11.93q-2.255 4.572-2.56 7.53-0.2696 2.887 1.309 4.909 1.542 1.915 4.971 3.607l20 9.868q3.286 1.621 5.816 1.714 2.458 0.0579 4.585-1.913 2.162-2.042 4.453-6.685zm37.74-56.09q2.62 2.562 4.004 5.475 1.383 2.801 1.027 6.241-0.356 3.44-2.956 7.694-2.487 4.252-7.723 9.605-5.235 5.353-9.487 7.992-4.139 2.637-7.57 3.07-3.431 0.4323-6.318-0.8308-2.944-1.319-5.563-3.881l-19.42-18.99q-2.62-2.562-3.947-5.42-1.384-2.914-1.028-6.354 0.356-3.44 2.843-7.692 2.543-4.309 7.778-9.662 5.235-5.353 9.431-7.935 4.252-2.638 7.683-3.071 3.431-0.4324 6.319 0.9434 2.887 1.263 5.506 3.825zm-11 24.01q4.4-4.499 5.882-7.951 1.482-3.453 0.7764-6.148-0.763-2.752-3.041-4.979l-16.8-16.43q-2.335-2.283-5.046-2.929-2.711-0.6457-6.13 0.9132-3.419 1.559-7.818 6.058-4.344 4.442-5.826 7.895-1.482 3.452-0.7764 6.148 0.7617 2.639 3.097 4.922l16.8 16.43q2.278 2.228 4.99 2.986 2.711 0.6456 6.13-0.9133 3.419-1.559 7.763-6.001zm-0.5695-0.557q-4.121 4.214-7.315 5.771-3.25 1.501-5.792 0.9095-2.543-0.7039-4.65-2.765l-16.8-16.43q-2.164-2.116-2.867-4.587-0.6478-2.527 0.8371-5.755 1.428-3.283 5.549-7.497 4.177-4.271 7.427-5.772 3.193-1.556 5.735-0.9652 2.541 0.5913 4.705 2.708l16.8 16.43q2.107 2.061 2.812 4.644 0.6478 2.528-0.7802 5.81-1.485 3.227-5.662 7.498zm-12.43-3.016q1.139 1.114 2.772 1.039 1.576-0.1302 4.583-3.205 3.063-3.132 3.102-4.653 0.0381-1.634-1.101-2.748l-15.32-14.98q-1.139-1.114-2.715-0.9837-1.52 0.0734-4.583 3.205-3.007 3.075-3.102 4.653-0.09509 1.578 1.044 2.692zm56.51-22.69-10.8 4.927q-2.609 1.19-3.799-1.418l-21.43-46.96q-1.19-2.609 1.418-3.799l11.67-5.324q2.174-0.9919 4.325 0.653l11.91 8.836q0.6599 0.4869 1.01 0.6776 0.4221 0.1574 0.857-0.04124l0.6522-0.2974q0.4348-0.1983 0.5199-0.5875 0.1576-0.4221 0.2223-1.24l1.06-14.76q0.1675-2.703 2.341-3.695l11.74-5.357q2.609-1.19 3.799 1.418l21.43 46.96q1.19 2.609-1.418 3.799l-11.16 5.092q-2.609 1.19-3.799-1.418l-11.64-25.51-0.6713 9.85q-0.1737 2.881-2.783 4.071l-2.899 1.323q-2.609 1.19-4.899-0.5664l-7.88-5.948 11.64 25.51q1.19 2.609-1.418 3.799zm-0.6286-33.42q-1.304 0.5952-2.149 0.28-0.8443-0.3152-2.936-1.637l-14.99-9.445q-0.7655-0.5262-1.444-0.4791-0.712-0.02649-1.292 0.2391l-1.232 0.5622q-1.884 0.8597-0.8591 3.106l16.83 36.89 0.7247-0.3307-16.83-36.89q-0.2645-0.5798-0.2459-1.114-0.014-0.6065 0.7106-0.9371l1.087-0.496q0.5073-0.2312 0.9357-0.2516 0.5009-0.05373 1.266 0.4728l14.93 9.3q2.197 1.361 3.18 1.788 1.055 0.394 2.65-0.3337 1.594-0.7275 1.916-1.75 0.394-1.055 0.8056-3.607l2.757-17.37q0.1041-0.9231 0.4004-1.233 0.2962-0.3103 0.8034-0.5417l1.087-0.4961q0.7971-0.3636 1.246 0.04427 0.4158 0.3352 0.6804 0.9154l16.83 36.89 0.7246-0.3307-16.83-36.89q-1.025-2.246-2.982-1.354l-1.232 0.5622q-0.5798 0.2645-1.027 0.8189-0.4081 0.4489-0.5122 1.372l-2.691 17.51q-0.3722 2.446-0.6874 3.291-0.3152 0.8443-1.62 1.439zm65.32 13.23-12.31 0.8931q-2.86 0.2081-3.068-2.653l-3.734-51.48q-0.2075-2.86 2.653-3.067l24.31-1.763q7.23-0.5244 11.43 1.168 4.269 1.607 6.191 4.982 1.922 3.375 2.256 7.982l0.7375 10.17q0.3342 4.608-1.081 8.224-1.415 3.617-5.402 5.902-3.913 2.201-11.14 2.725l-9.136 0.6626 0.9565 13.19q0.2075 2.86-2.653 3.068zm-7.135-22.4 16.37-1.187q5.005-0.3632 7.449-1.898 2.524-1.541 3.225-3.987 0.701-2.447 0.4763-5.545l-0.4264-5.879q-0.2247-3.098-1.271-5.418-1.053-2.399-3.778-3.639-2.646-1.246-7.651-0.8826l-17.16 1.245 3.111 42.9 0.7944-0.05751zm16.31-1.981-16.37 1.187-1.861-25.66 16.37-1.187q4.687-0.3398 7.169 0.8378 2.476 1.098 3.437 3.345 1.035 2.161 1.243 5.021l0.4264 5.879q0.2075 2.86-0.5051 5.148-0.6331 2.282-2.924 3.726-2.297 1.365-6.984 1.704zm-9.543-18.16 0.87 12 7.15-0.5186q2.304-0.1672 2.933-1.411 0.6286-1.244 0.5191-2.753l-0.3054-4.211q-0.1153-1.589-0.9109-2.649-0.8014-1.14-3.105-0.9728zm90.82 39.12q-0.9397 3.542-2.794 6.181-1.757 2.583-5.003 3.947-3.169 1.384-8.075 1.236-4.926-0.07113-12.09-1.971-7.16-1.9-11.47-4.28-4.333-2.304-6.477-5.097-2.066-2.773-2.388-5.908-0.2246-3.191 0.715-6.733l10.11-38.11q0.7354-2.772 3.507-2.036l12.09 3.207q2.772 0.7354 2.036 3.507l-9.315 35.11q-0.4086 1.54 0.4603 2.924 0.8893 1.307 4.893 2.37 4.08 1.083 5.501 0.3882 1.441-0.7715 1.849-2.311l9.315-35.11q0.7354-2.772 3.507-2.036l11.7 3.105q2.772 0.7354 2.036 3.507zm-30.1-44.33-8.518 32.11q-0.8171 3.08-0.1415 5.814 0.7731 2.677 3.736 4.865 3.04 2.208 9.046 3.801 6.082 1.614 9.74 1.183 3.735-0.4099 5.656-2.373 2.019-2.019 2.836-5.099l8.518-32.11-0.7699-0.2039-8.518 32.11q-0.7559 2.849-2.657 4.734-1.804 1.829-5.364 2.203-3.463 0.3175-9.237-1.215-5.697-1.512-8.624-3.524-2.83-2.069-3.567-4.572-0.6394-2.56 0.1165-5.408l8.518-32.11zm58.54 78.91-10.76-7.126q-2.391-1.584-0.8068-3.974l21.6-32.61-9.762-6.466q-2.391-1.584-0.807-3.974l5.323-8.035q1.584-2.391 3.974-0.8068l35.06 23.23q2.391 1.584 0.8068 3.974l-5.323 8.035q-1.584 2.391-3.974 0.807l-9.762-6.466-21.6 32.61q-1.584 2.391-3.974 0.807zm-1.752-9.76 0.6641 0.4399 23.31-35.2 13.61 9.018 0.4399-0.664-27.89-18.48-0.4399 0.664 13.61 9.018zm46.99 56.11-23.28-28.71q-1.806-2.227 0.421-4.033l40.09-32.51q2.227-1.806 4.033 0.421l23.28 28.71q1.806 2.227-0.421 4.033l-7.238 5.87q-2.227 1.806-4.033-0.421l-13.85-17.08-4.764 3.863 9.784 12.06q1.806 2.227-0.421 4.033l-6.62 5.368q-2.227 1.806-4.033-0.421l-9.784-12.06-5.321 4.315 13.85 17.08q1.806 2.227-0.4211 4.033l-7.238 5.87q-2.227 1.806-4.033-0.421zm3.477-8.358-16.41-20.23 16.02-12.99 12.34 15.22 0.6186-0.5018-12.34-15.22 15.53-12.59 16.41 20.23 0.6186-0.5017-16.91-20.85-33.41 27.09 16.91 20.85zm28.51 26.61-5.158-11.22q-1.198-2.605 1.374-3.876l27.44-13.93q2.572-1.27 3.737 1.263l6.355 13.82q1.165 2.533-1.474 3.659l-28.4 11.83q-2.639 1.125-3.87-1.552zm-18.46 9.804-6.123-13.32q-1.198-2.605 1.408-3.803l9.481-4.359q2.605-1.198 3.803 1.408l6.122 13.32q1.198 2.605-1.408 3.803l-9.481 4.359q-2.605 1.198-3.803-1.407zm42.7-27.26-0.3326-0.7238-20.12 9.25 0.3326 0.7238zm-40.14 17.58 0.333 0.7237 3.112-1.431-0.3326-0.7237z" fill="#fff3d8" stroke-width="13.36" style="white-space:pre" aria-label="COMPUTE!"/>
    </g>
    <g transform="matrix(1.001 0 0 1.001 -81.33 -222.5)" fill="#eac435" stroke-width=".2643">
      <g>
        <circle class="ml-sd" style="animation-delay:0s" cx="133.1" cy="511.8" r="1.097"/>
        <circle class="ml-sd" style="animation-delay:0.7s" cx="290.4" cy="429.9" r="1.097"/>
        <circle class="ml-sd" style="animation-delay:1.4s" cx="476.1" cy="484.3" r="2.018"/>
        <circle class="ml-sd" style="animation-delay:0.3s" cx="281.2" cy="257.7" r="2.24"/>
        <g stroke-linecap="round" stroke-linejoin="round">
          <path class="ml-sd" style="animation-delay:0.5s" d="m288.1 345.6c-0.1738 1.3e-4 -0.3258 0.1167-0.3711 0.2845l-0.864 3.208c-0.1054 0.3915-0.1551 0.5479-0.2134 0.6376-0.0627 0.0965-0.1449 0.1786-0.2414 0.2414-0.0896 0.0583-0.2461 0.108-0.6376 0.2134l-3.209 0.8635c-0.3804 0.1017-0.3804 0.6415 0 0.7433l3.209 0.8635c0.3915 0.1054 0.548 0.1551 0.6376 0.2134 0.0965 0.0627 0.1787 0.1449 0.2414 0.2414 0.0582 0.0896 0.108 0.2461 0.2134 0.6376l0.864 3.209c0.1024 0.3792 0.6404 0.3792 0.7428 0l0.864-3.209c0.1054-0.3915 0.1546-0.548 0.2129-0.6376 0.0627-0.0965 0.1454-0.1787 0.2419-0.2414 0.0896-0.0582 0.2461-0.108 0.6376-0.2134l3.208-0.8635c0.3804-0.1017 0.3804-0.6415 0-0.7433l-3.208-0.8635c-0.3915-0.1054-0.548-0.1551-0.6376-0.2134-0.0966-0.0628-0.1792-0.1449-0.2419-0.2414-0.0583-0.0897-0.1075-0.2461-0.2129-0.6376l-0.864-3.208c-0.0453-0.168-0.1977-0.2846-0.3717-0.2845z" stop-color="#000000" stroke-width=".2643"/>
          <path class="ml-sd" style="animation-delay:1.2s" d="m180.8 580.6c-0.1292 9e-5 -0.2422 0.0868-0.2759 0.2115l-0.6423 2.385c-0.0783 0.291-0.1153 0.4073-0.1586 0.474-0.0466 0.0717-0.1077 0.1328-0.1795 0.1795-0.0666 0.0433-0.183 0.0803-0.474 0.1586l-2.385 0.6419c-0.2828 0.0756-0.2828 0.4769 0 0.5526l2.385 0.6419c0.291 0.0783 0.4074 0.1153 0.474 0.1586 0.0717 0.0466 0.1328 0.1077 0.1795 0.1795 0.0433 0.0666 0.0803 0.183 0.1586 0.474l0.6423 2.385c0.0761 0.2819 0.476 0.2819 0.5522 0l0.6423-2.385c0.0784-0.291 0.115-0.4074 0.1582-0.474 0.0466-0.0717 0.1081-0.1328 0.1798-0.1795 0.0666-0.0433 0.183-0.0803 0.474-0.1586l2.385-0.6419c0.2828-0.0756 0.2828-0.4769 0-0.5526l-2.385-0.6419c-0.291-0.0784-0.4074-0.1153-0.474-0.1586-0.0718-0.0467-0.1332-0.1077-0.1798-0.1795-0.0433-0.0667-0.0799-0.183-0.1582-0.474l-0.6423-2.385c-0.0337-0.1248-0.147-0.2116-0.2763-0.2115z" stop-color="#000000" stroke-width=".2643"/>
          <path class="ml-sd" style="animation-delay:0.0s" d="m253.5 492.1c-0.1738 1.3e-4 -0.3258 0.1167-0.3711 0.2845l-0.864 3.209c-0.1054 0.3915-0.1551 0.5479-0.2134 0.6376-0.0627 0.0965-0.1449 0.1786-0.2414 0.2414-0.0896 0.0583-0.2461 0.108-0.6376 0.2134l-3.209 0.8635c-0.3804 0.1017-0.3804 0.6415 0 0.7433l3.209 0.8635c0.3915 0.1054 0.548 0.1551 0.6376 0.2134 0.0965 0.0627 0.1787 0.1449 0.2414 0.2414 0.0582 0.0896 0.108 0.2461 0.2134 0.6376l0.864 3.209c0.1024 0.3792 0.6404 0.3792 0.7428 0l0.864-3.209c0.1054-0.3915 0.1546-0.548 0.2129-0.6376 0.0627-0.0965 0.1454-0.1787 0.2419-0.2414 0.0896-0.0582 0.2461-0.108 0.6376-0.2134l3.208-0.8635c0.3804-0.1017 0.3804-0.6415 0-0.7433l-3.208-0.8635c-0.3915-0.1054-0.548-0.1551-0.6376-0.2134-0.0966-0.0628-0.1792-0.1449-0.2419-0.2414-0.0583-0.0897-0.1075-0.2461-0.2129-0.6376l-0.864-3.209c-0.0453-0.168-0.1977-0.2846-0.3717-0.2845z" stop-color="#000000" stroke-width=".2643"/>
          <path class="ml-sd" style="animation-delay:1.8s" d="m462.5 324.9c-0.1961 1.4e-4 -0.3677 0.1317-0.4187 0.321l-0.9749 3.62c-0.1189 0.4417-0.175 0.6182-0.2407 0.7194-0.0708 0.1089-0.1634 0.2016-0.2724 0.2724-0.1011 0.0658-0.2777 0.1218-0.7194 0.2407l-3.62 0.9743c-0.4292 0.1148-0.4292 0.7238 0 0.8386l3.62 0.9743c0.4417 0.1189 0.6183 0.175 0.7194 0.2407 0.1089 0.0708 0.2016 0.1635 0.2724 0.2724 0.0657 0.1011 0.1218 0.2777 0.2407 0.7194l0.9749 3.62c0.1156 0.4278 0.7225 0.4278 0.8381 0l0.9748-3.62c0.1189-0.4417 0.1745-0.6183 0.2402-0.7194 0.0708-0.1089 0.164-0.2016 0.2729-0.2724 0.1011-0.0657 0.2777-0.1218 0.7194-0.2407l3.62-0.9743c0.4292-0.1148 0.4292-0.7238 0-0.8386l-3.62-0.9743c-0.4418-0.1189-0.6183-0.175-0.7194-0.2407-0.109-0.0709-0.2022-0.1635-0.2729-0.2724-0.0658-0.1012-0.1213-0.2777-0.2402-0.7194l-0.9748-3.62c-0.0511-0.1895-0.223-0.3211-0.4193-0.321z" stop-color="#000000" stroke-width=".2643"/>
          <path class="ml-sd" style="animation-delay:0.9s" d="m538 452.6c-0.1393 1e-4 -0.2612 0.0936-0.2975 0.2281l-0.6927 2.572c-0.0845 0.3139-0.1243 0.4393-0.171 0.5112-0.0503 0.0774-0.1161 0.1432-0.1935 0.1936-0.0719 0.0468-0.1973 0.0866-0.5112 0.171l-2.572 0.6923c-0.305 0.0816-0.305 0.5143 0 0.5959l2.572 0.6923c0.3138 0.0845 0.4393 0.1244 0.5112 0.1711 0.0774 0.0503 0.1432 0.1162 0.1935 0.1936 0.0467 0.0718 0.0866 0.1973 0.171 0.5112l0.6927 2.572c0.0821 0.304 0.5134 0.304 0.5955 0l0.6927-2.572c0.0845-0.3139 0.124-0.4393 0.1706-0.5112 0.0503-0.0774 0.1166-0.1433 0.1939-0.1936 0.0718-0.0467 0.1973-0.0866 0.5112-0.1711l2.572-0.6923c0.305-0.0816 0.305-0.5143 0-0.5959l-2.572-0.6923c-0.3139-0.0845-0.4394-0.1244-0.5112-0.171-0.0774-0.0504-0.1437-0.1162-0.1939-0.1936-0.0467-0.0719-0.0862-0.1973-0.1706-0.5112l-0.6927-2.572c-0.0363-0.1346-0.1585-0.2282-0.298-0.2281z" stop-color="#000000" stroke-width=".2643"/>
        </g>
      </g>
      <path class="ml-sd" style="animation-delay:2.3s" d="m381.7 351.5c-0.0567 4e-5 -0.1064 0.0381-0.1212 0.0929l-0.282 1.047c-0.0344 0.1278-0.0506 0.1789-0.0697 0.2081-0.0205 0.0315-0.0473 0.0583-0.0788 0.0788-0.0293 0.0191-0.0803 0.0352-0.2081 0.0697l-1.047 0.2819c-0.1242 0.0332-0.1242 0.2094 0 0.2426l1.047 0.2819c0.1278 0.0344 0.1789 0.0507 0.2081 0.0696 0.0315 0.0205 0.0583 0.0473 0.0788 0.0788 0.019 0.0292 0.0353 0.0803 0.0697 0.2081l0.282 1.047c0.0335 0.1238 0.209 0.1238 0.2425 0l0.282-1.047c0.0344-0.1278 0.0505-0.1789 0.0695-0.2081 0.0205-0.0315 0.0475-0.0583 0.079-0.0788 0.0292-0.019 0.0803-0.0352 0.2082-0.0696l1.047-0.2819c0.1242-0.0332 0.1242-0.2094 0-0.2426l-1.047-0.2819c-0.1278-0.0344-0.1789-0.0507-0.2082-0.0697-0.0315-0.0205-0.0585-0.0473-0.079-0.0788-0.019-0.0293-0.0351-0.0803-0.0695-0.2081l-0.282-1.047c-0.0148-0.0548-0.0645-0.0929-0.1213-0.0929z" fill-opacity=".7772" stop-color="#000000" stroke-linecap="round" stroke-linejoin="round" stroke-width=".2643"/>
      <g>
        <g stroke-linecap="round" stroke-linejoin="round" stroke-width=".2643">
          <path class="ml-sd" style="animation-delay:0.4s" d="m502.7 569.9c-0.2457 1.9e-4 -0.4608 0.1651-0.5248 0.4023l-1.222 4.537c-0.149 0.5536-0.2193 0.7749-0.3017 0.9017-0.0886 0.1365-0.2048 0.2526-0.3414 0.3414-0.1267 0.0825-0.348 0.1527-0.9016 0.3017l-4.537 1.221c-0.538 0.1439-0.538 0.9072 0 1.051l4.537 1.221c0.5536 0.149 0.7749 0.2194 0.9016 0.3017 0.1365 0.0886 0.2526 0.2049 0.3414 0.3414 0.0823 0.1267 0.1527 0.348 0.3017 0.9016l1.222 4.537c0.1448 0.5362 0.9056 0.5362 1.05 0l1.222-4.537c0.149-0.5536 0.2187-0.7749 0.301-0.9016 0.0886-0.1365 0.2056-0.2527 0.3421-0.3414 0.1267-0.0823 0.348-0.1527 0.9017-0.3017l4.537-1.221c0.538-0.1439 0.538-0.9072 0-1.051l-4.537-1.221c-0.5537-0.149-0.775-0.2194-0.9017-0.3017-0.1366-0.0888-0.2534-0.205-0.3421-0.3414-0.0825-0.1268-0.152-0.348-0.301-0.9017l-1.222-4.537c-0.064-0.2375-0.2796-0.4025-0.5256-0.4023z" stop-color="#000000"/>
          <path d="m342.9 294.6c-0.1604 1.2e-4 -0.3008 0.1077-0.3425 0.2626l-0.7975 2.962c-0.0973 0.3614-0.1431 0.5058-0.1969 0.5885-0.0579 0.0891-0.1337 0.1649-0.2228 0.2228-0.0827 0.0538-0.2272 0.0997-0.5885 0.1969l-2.962 0.797c-0.3511 0.0939-0.3511 0.5922 0 0.6861l2.962 0.797c0.3613 0.0973 0.5058 0.1432 0.5885 0.1969 0.0891 0.0579 0.1649 0.1337 0.2228 0.2228 0.0537 0.0827 0.0997 0.2272 0.1969 0.5885l0.7975 2.962c0.0945 0.35 0.5911 0.35 0.6856 0l0.7975-2.962c0.0973-0.3614 0.1427-0.5058 0.1965-0.5885 0.0579-0.0891 0.1342-0.1649 0.2233-0.2228 0.0827-0.0537 0.2272-0.0997 0.5885-0.1969l2.961-0.797c0.3511-0.0939 0.3511-0.5922 0-0.6861l-2.961-0.797c-0.3614-0.0973-0.5058-0.1432-0.5885-0.1969-0.0891-0.058-0.1654-0.1338-0.2233-0.2228-0.0538-0.0828-0.0992-0.2272-0.1965-0.5885l-0.7975-2.962c-0.0418-0.155-0.1825-0.2627-0.3431-0.2626z" stop-color="#000000"/>
          <path d="m179.3 455.8c-0.2585 1.9e-4 -0.4847 0.1736-0.552 0.4232l-1.285 4.773c-0.1567 0.5824-0.2307 0.8151-0.3174 0.9484-0.0933 0.1436-0.2155 0.2657-0.3591 0.3591-0.1333 0.0867-0.3661 0.1606-0.9484 0.3174l-4.773 1.284c-0.5659 0.1513-0.5659 0.9543 0 1.106l4.773 1.284c0.5823 0.1568 0.8151 0.2307 0.9484 0.3174 0.1436 0.0933 0.2658 0.2155 0.3591 0.3591 0.0866 0.1333 0.1606 0.3661 0.3174 0.9484l1.285 4.773c0.1524 0.564 0.9526 0.564 1.105 0l1.285-4.773c0.1568-0.5824 0.23-0.8152 0.3166-0.9484 0.0933-0.1436 0.2162-0.2658 0.3598-0.3591 0.1333-0.0866 0.3661-0.1606 0.9485-0.3174l4.772-1.284c0.5659-0.1513 0.5659-0.9543 0-1.106l-4.772-1.284c-0.5824-0.1568-0.8152-0.2307-0.9485-0.3174-0.1436-0.0934-0.2666-0.2156-0.3598-0.3591-0.0867-0.1334-0.1599-0.3661-0.3166-0.9484l-1.285-4.773c-0.0674-0.2498-0.2941-0.4233-0.5529-0.4232z" stop-color="#000000"/>
        </g>
        <circle cx="218.6" cy="401.8" r="1.942"/>
        <circle cx="427.9" cy="270.9" r="1.097"/>
      </g>
    </g>
  </g>
  <path d="m310 134.3c-2.425-0.5881-5.381 2.264-6.214 6.455-0.4535 2.281 0.6133 3.27-0.2534 4.495-1.187 1.677-4.126 0.9947-5.687 2.377-0.4813-0.2974-1.298-0.2464-1.535-0.7668-0.2953-0.6475 0.2755-1.208 0.532-2.068 0.7194-2.967-0.3814-5.083-2.385-5.569-2.003-0.4858-4.032 2.028-4.509 3.429-0.3835 1.128-0.2078 2.822-0.7842 3.32-0.6524 0.5645-6.687 3.184-7.625 7.052l-0.3579 1.476 45.35 11 0.591-2.437c1.001-4.127-4.301-6.64-4.233-10.37 0.0208-1.139 1.007-1.104 1.406-3.115 0.7075-3.567-0.414-6.876-2.839-7.464-2.425-0.588-5.107 1.795-5.942 5.334-0.3922 1.663 0.0842 2.856-0.1885 3.336-0.1138 0.2003-0.4607 0.0333-0.6884 0.0623-0.8535-1.634-3.473-2.138-3.84-3.933-0.2894-1.417 0.8658-1.943 1.57-4.044 1.359-4.052 0.0585-7.977-2.366-8.565z" fill="#27414d" fill-opacity=".6718" style="paint-order:stroke fill markers"/>
  <path id="ml-dome-arc" d="m243.5 179.5c-0.6611-6.144-0.3033-12.36 1.059-18.38 6.836-30.25 36.9-49.23 67.14-42.39s49.23 36.9 42.39 67.14v0c-1.473 6.516-4.096 12.72-7.748 18.31" fill="#fff" fill-opacity=".1495" stroke="#fff" stroke-linecap="round" stroke-linejoin="round" stroke-opacity=".6294"/>
  <path d="m322.5 125.6a1.001 1.001 0 0 0-1.338 0.4616 1.001 1.001 0 0 0 0.4614 1.339c15.86 7.729 22.9 18.62 26.13 33.16a1.001 1.001 0 0 0 1.193 0.7604 1.001 1.001 0 0 0 0.7618-1.194c-3.311-14.94-10.88-26.57-27.2-34.53z" fill="#fff" fill-opacity=".1397" stop-color="#000000"/>
  <ellipse id="ml-saucer-body" transform="rotate(12.73)" cx="328.6" cy="114.7" rx="118.2" ry="32.98" fill="#b3dff5" stroke="#27414d" stroke-linecap="round" stroke-linejoin="round" stroke-width="2.5"/>
  <ellipse transform="rotate(12.73)" cx="328.6" cy="126.8" rx="82.83" ry="20.86" fill="#27414d" fill-opacity=".4242" stroke="#27414d" stroke-linecap="round" stroke-linejoin="round" stroke-width="1.5"/>
  <path d="m299.5 175.9a0.5006 0.5006 0 0 0-0.6454 0.2889l-7.216 18.88-38.05-26.26a0.5006 0.5006 0 0 0-0.6961 0.1284 0.5006 0.5006 0 0 0 0.1284 0.6961l36.74 25.36-77.9-17.61a0.5006 0.5006 0 0 0-0.5999 0.3787 0.5006 0.5006 0 0 0 0.379 0.5987l77 17.4-50.57 4.71a0.5006 0.5006 0 0 0-0.4524 0.545 0.5006 0.5006 0 0 0 0.5452 0.4512l52.9-4.927-7.367 19.27a0.5006 0.5006 0 0 0 0.2887 0.6466 0.5006 0.5006 0 0 0 0.6466-0.2886l7.477-19.56 38.82 26.8a0.5006 0.5006 0 0 0 0.6961-0.1284 0.5006 0.5006 0 0 0-0.1272-0.6958l-36.91-25.48 78.63 17.77a0.5006 0.5006 0 0 0 0.5984-0.3778 0.5006 0.5006 0 0 0-0.3775-0.5996l-78.44-17.73 49.83-4.641a0.5006 0.5006 0 0 0 0.4512-0.5452 0.5006 0.5006 0 0 0-0.544-0.4509l-52.16 4.859 7.207-18.85a0.5006 0.5006 0 0 0-0.2898-0.6469z" fill="#27414d" stop-color="#000000" style="paint-order:stroke fill markers"/>
  <ellipse transform="rotate(12.73)" cx="328.8" cy="131.2" rx="48.12" ry="12.12" fill="none" stroke="#27414d" stroke-linecap="round" stroke-linejoin="round" stroke-width="2.5"/>
  <path d="m244.8 189.8-154.8 231.6a234.4 234.4 0 0 0 159.9 63.02 234.4 234.4 0 0 0 124.3-35.66l-35.59-237.7z" fill="#ff4b00" fill-opacity=".6592"/>
  <ellipse id="ml-saucer-glow" transform="rotate(12.73)" cx="328.8" cy="131.2" rx="48.12" ry="12.12" fill="#eac435"/>
  <g id="ml-instruments" transform="matrix(1.001 0 0 1.001 -90.21 -225.4)" stroke-width=".2643">
    <path class="st0" transform="matrix(.2605 -.6451 .6369 .2679 -40.22 572.7)" d="m420.7 494.7-21.48 4.988 2.483 10.69 6.696-1.555c0.0612 1.28 0.701 2.516 1.847 3.285 1.921 1.289 4.525 0.7782 5.815-1.144 0.8252-1.229 0.9102-2.739 0.3607-4.004l6.822-1.584a0.8348 0.8348 121.9 0 0 0.6243-1.002l-0.2401-1.034 0.4136-0.0959a0.8907 0.8907 121.9 0 0 0.6664-1.069l-1.215-5.229a0.9248 0.9248 31.91 0 0-1.111-0.6915l-0.38 0.0885-0.2262-0.9743a0.895 0.895 31.93 0 0-1.074-0.6693zm-7.268 12.66c0.0696 0.0468 0.1303 0.1023 0.1909 0.1585 0.0251 0.0242 0.0516 0.0492 0.0752 0.0741 0.4719 0.5085 0.5546 1.29 0.1517 1.891-0.471 0.7017-1.422 0.8887-2.123 0.4177-0.5719-0.3839-0.7947-1.086-0.6055-1.712 0.02-0.0647 0.0438-0.1294 0.0714-0.1926 0.0336-0.0747 0.0692-0.1482 0.1162-0.2184 0.4706-0.7008 1.422-0.8885 2.123-0.4175zm-15.38-7.4-1.56 0.3622a0.5936 0.5936 121.9 0 0-0.444 0.7126l0.2626 1.13-3.2e-4 3.7e-4 0.0321 0.1382-2.344 0.5441a0.5052 0.5052 121.9 0 0-0.3779 0.6062l0.1444 0.6229 1.254 5.399a0.4968 0.4968 31.92 0 0 0.5964 0.3715l2.352-0.547 0.2422 1.042a0.8264 0.8264 31.91 0 0 0.9923 0.6178l1.332-0.31-2.085-8.982-4.4e-4 4.4e-4zm17.43 13.2c-1.127 0.7214-2.491 0.9963-3.809 0.774-0.2697 2.113-1.013 4.196-2.28 6.085-4.358 6.493-12.17 8.255-17.77 4.494-3.629-2.436-5.382-5.658-5.604-9.377l-6.398-7.444c-5.735 19.74 21.22 32.5 32.77 15.3 2.031-3.026 3.034-6.44 3.098-9.832zm-35.58-9.337-0.6478 0.5566a0.6581 0.6581 94.33 0 0-0.0702 0.928l9.574 11.14a0.6158 0.6158 4.329 0 0 0.8684 0.0657l0.5956-0.5117a0.594 0.594 94.33 0 0 0.0634-0.8377l-9.702-11.29a0.4833 0.4833 4.328 0 0-0.6816-0.0516zm12.67 27.91c-4.11-0.9978-7.497-3.246-9.923-5.949-0.2523-0.2811-0.7535-0.5365-1.131-0.5404-2.446-0.0251-4.873 0.5791-7.026 1.769-0.3614 0.1997-0.3666 0.5655-0.0237 0.7957l20.23 13.58c0.3429 0.2302 0.6795 0.0868 0.7275-0.3233 0.3408-2.911-0.2344-5.867-1.634-8.441-0.218-0.4009-0.7791-0.7842-1.223-0.8919z" fill="#fff3d8" stroke-width=".5957"/>
    <g fill="#fff3d8" fill-opacity=".6">
      <path d="m306.6 504.1c0.347 0.2918 0.3917 0.8061 0.0999 1.153l-0.4782 0.5687 24.4 20.52c0.2512 0.2111 0.2834 0.5833 0.0722 0.8345l-1.442 1.715 9.649 8.114c0.1841 0.1549 0.2078 0.4278 0.053 0.612l-1.58 1.879 5.952 5.005 0.2947-0.3505c0.2301-0.2737 0.6355-0.3087 0.9091-0.0786l1.146 0.9635c0.2737 0.2301 0.309 0.6357 0.0788 0.9094l-4.403 5.236c-0.2301 0.2736-0.636 0.3087-0.9097 0.0786l-1.146-0.9635c-0.2736-0.2301-0.3085-0.6358-0.0783-0.9094l0.2946-0.3502-5.952-5.005-1.58 1.879c-0.1549 0.1842-0.4278 0.2077-0.612 0.053l-2.868-2.412c-0.2708 0.407-0.641 0.7382-1.075 0.9624 0.0438 0.1301 0.0578 0.2684 0.041 0.4046l-3.473 27.07c-0.0645 0.5022-0.5239 0.857-1.026 0.7924-0.5019-0.0645-0.8566-0.5236-0.7924-1.026l3.459-26.96c-0.2398-0.0401-0.4735-0.1104-0.6956-0.2092-0.2116-0.094-0.4111-0.2132-0.5941-0.3551l-17.71 20.63c-0.3298 0.3842-0.9086 0.4283-1.293 0.0985-0.3839-0.3298-0.4279-0.9084-0.0982-1.292l17.77-20.71c-2e-3 3e-3 0.2407-0.3252 0.2407-0.3252-0.1764-0.6411-0.0514-1.235 0.2188-1.842 0.154-0.3462 0.3748-0.6586 0.65-0.9192l-2.408-2.025-1.442 1.715c-0.2112 0.2511-0.5833 0.2834-0.8345 0.0722l-24.4-20.52-0.4782 0.5687c-0.2918 0.347-0.8063 0.3915-1.153 0.0997l-1.315-1.106c-0.347-0.2918-0.3912-0.8061-0.0994-1.153l12.14-14.43c0.2918-0.347 0.8058-0.3914 1.153-0.0997zm20.59 36.38c-0.7524-0.6326-1.875-0.5354-2.508 0.217-0.6325 0.7523-0.5355 1.875 0.2167 2.507 0.7523 0.6325 1.875 0.5355 2.507-0.2167 0.6327-0.7523 0.5358-1.875-0.2165-2.508z"/>
      <path d="m317.6 624.9c0.6503-0.5343 1.588-0.3789 2.122 0.2714 0 0 0.0652 0.0911 0.0652 0.0911 0.782 1.093 1.733 2.133 2.801 2.952l4.237-6.681c-1.524-1.456-2.151-3.486-1.814-5.517 0.5696-3.437 3.848-5.783 7.284-5.213 3.437 0.5696 5.783 3.848 5.213 7.284-0.3366 2.031-1.676 3.815-3.51 4.715l1.868 7.613c1.275-0.4307 2.511-1.109 3.604-1.891 0.6503-0.5343 1.588-0.3789 2.122 0.2714 0 0 0.0651 0.0911 0.0651 0.0911 0.5213 0.7284 0.3531 1.744-0.3754 2.265-1.457 1.043-2.953 1.838-4.658 2.438l1.542 6.194-0.2411 6.782c-0.0388 0.2343-0.2209 0.3646-0.4553 0.3258-0.1562-0.0259-0.2214-0.1169-0.2866-0.208l-3.396-12.44c-1.236 0.1964-2.538 0.3017-3.801 0.1727l-0.1424 0.8592c-0.1424 0.8592-0.9619 1.446-1.821 1.303-0.8592-0.1424-1.446-0.9619-1.303-1.821l0.1424-0.8592c-1.237-0.2852-2.435-0.8048-3.62-1.402l-7.149 10.69c-0.2209 0.3647-0.8199 0.1049-0.7423-0.3638l2.051-6.562 3.444-5.288c-1.342-1.105-2.579-2.354-3.622-3.81-0.5213-0.7284-0.2749-1.731 0.3754-2.265zm14.18-10.97c-1.718-0.2848-3.357 0.8882-3.642 2.607-0.2848 1.718 0.8882 3.357 2.607 3.642 1.718 0.2848 3.357-0.8882 3.642-2.607 0.2848-1.718-0.8882-3.357-2.607-3.642zm-4.384 16.77 0.1036-0.6249c0.1424-0.8592 0.9619-1.446 1.821-1.303 0.8592 0.1424 1.446 0.9619 1.303 1.821l-0.1036 0.6249c0.794 0.0513 1.601 0.0245 2.421-0.0803l-2.012-7.717-1.406-0.233-4.484 6.721c0.7423 0.3638 1.589 0.5843 2.357 0.7918z" stroke-width="4.405"/>
      <path d="m221.9 615.6c-0.9213 0-1.676 0.7608-1.676 1.688s0.755 1.687 1.676 1.687c0.9213 0 1.677-0.7599 1.677-1.687s-0.7559-1.688-1.677-1.688zm7.091 3.853c-1.301 0-2.364 1.07-2.364 2.38 0 1.31 1.063 2.381 2.364 2.381s2.365-1.071 2.365-2.381c0-1.31-1.064-2.38-2.365-2.38zm-3.662-12.06c-1.057 0-1.923 0.8712-1.923 1.935 0 1.064 0.8656 1.935 1.923 1.935 1.057 0 1.923-0.8712 1.923-1.935 0-1.064-0.8656-1.935-1.923-1.935zm0.6865 21.11c-0.1537 0.0583-0.2309 0.2296-0.173 0.3843l0.3446 0.9212c0.0579 0.1547 0.2283 0.2323 0.3819 0.1741l0.2738-0.1038 4.513 12.06-3.407 20.79c-0.2553 1.558 1.261 2.809 2.729 2.253l22.24-8.427c1.417-0.5369 1.725-2.416 0.5544-3.382l-16.2-13.38-4.545-12.15 0.2739-0.1038c0.1537-0.0583 0.2307-0.2297 0.1729-0.3843l-0.3446-0.9212c-0.0578-0.1547-0.2281-0.2323-0.3818-0.174zm5.504 22.05 16.37-0.1716 3.572 2.969c0.9923 0.7987 0.7142 2.373-0.5006 2.833l-19.07 7.225c-1.259 0.4771-2.544-0.5575-2.313-1.862z" stop-color="#000000" stroke-linecap="round" stroke-linejoin="round" stroke-width=".2643"/>
      <path d="m376.9 654c3.9e-4 1.1e-4 7.2e-4 1e-4 2e-3 7.8e-4l4.206 1.654c0.0526 0.0213 0.0901 0.0687 0.0986 0.1248 8e-3 0.0561-0.015 0.1121-0.0596 0.147l-1.694 1.318 1.422 1.828c5e-3 5e-3 2e-3 0.0124 5e-3 0.0178 0.0546 0.0899-3e-3 0.2728-0.1709 0.2238-6e-3 -2e-3 -0.0102 3e-3 -0.0153 7.7e-4l-4.204-1.653c-0.113-0.0465-0.1348-0.197-0.0397-0.2737l1.694-1.317-1.423-1.827c-5e-3 -5e-3 -2e-3 -0.0124-5e-3 -0.0179-0.1262-0.1296 0.089-0.1792 0.1113-0.224 0.019-2e-3 0.0361-5e-3 0.0548-2e-3 6e-3 2e-3 0.0133-3e-3 0.0193 1.6e-4zm7.209 3.615c0.1871 0.0321 0.3584 0.1251 0.4874 0.2644l2.54 2.746-3.1e-4 2.5e-4c0.0486 0.0489 3.894 3.923 4.978 5.357 4 5.292 2.994 12.84-2.283 16.86-5.278 4.019-12.82 2.98-16.86-2.282-1.094-1.426-3.806-6.163-3.841-6.223l-3.1e-4 1.5e-4 -1.972-3.179c-0.2514-0.4049-0.1266-0.9367 0.2783-1.188l4.398-2.729c0.405-0.2511 0.9369-0.1261 1.188 0.2791l1.972 3.178 3.3e-4 -2.3e-4s1.669 2.928 3.535 5.785c1.419 2.174 4.907 2.575 7.131 0.8809 2.224-1.694 2.765-5.163 1.047-7.109-2.259-2.558-4.637-4.946-4.637-4.946l3.2e-4 -2.4e-4 -2.54-2.746c-0.3244-0.3501-0.3032-0.8957 0.0468-1.219l3.8-3.514c0.197-0.182 0.4675-0.262 0.7318-0.2167zm-18.15 4.343c9e-3 6.2e-4 0.0175 3e-3 0.0261 6e-3 7e-3 3e-3 0.0143-2.3e-4 0.0203 4e-3l3.832 2.393c0.0477 0.0305 0.0758 0.084 0.0737 0.1406-3e-3 0.0565-0.0356 0.1072-0.0854 0.1339l-1.906 0.9867 1.064 2.056c4e-3 5e-3 -7.9e-4 0.0121 2e-3 0.0197 0.0424 0.1086-0.072 0.2661-0.2086 0.1865-5e-3 -2e-3 -0.0104 7.8e-4 -0.0154-2e-3l-3.832-2.394c-0.1022-0.0655-0.0961-0.2141 0.0124-0.2728l1.906-0.9866-1.065-2.056c-4e-3 -5e-3 7.8e-4 -0.0122-2e-3 -0.0197-2e-3 -5e-3 -0.0507-0.2288 0.1773-0.1972z" stroke-width="5.873"/>
      <g stroke-linecap="round" stroke-linejoin="round" stroke-width=".2643">
        <path d="m411.9 604.6a1 1 0 0 0-1.25 0.6582l-10.67 34.48a1 1 0 0 0 0.6582 1.25l34.44 10.68a1 1 0 0 0 1.25-0.6582 1 1 0 0 0-0.6582-1.252l-33.49-10.38 10.37-33.52a1 1 0 0 0-0.6602-1.25zm27.68 14.03a1 1 0 0 0-0.7012 0.3086l-7.008 7.322-2.748-5.223a1 1 0 0 0-1.697-0.1172l-8.551 11.93-2.641-5.018a1 1 0 0 0-1.607-0.2266l-7.969 8.326a1 1 0 0 0 0.0312 1.412 1 1 0 0 0 1.414-0.0293l7.008-7.32 2.75 5.221a1 1 0 0 0 1.697 0.1152l8.549-11.93 2.641 5.018a1 1 0 0 0 1.607 0.2246l7.969-8.324a1 1 0 0 0-0.0312-1.414 1 1 0 0 0-0.7129-0.2773z" stop-color="#000000"/>
        <path d="m325.8 475.2a1 1 0 0 0-0.3765 1.364l15.49 27.31a1 1 0 0 0 1.364 0.3754l32.77-18.59a1 1 0 0 0 0.3761-1.363 1 1 0 0 0-1.363-0.3771l-31.9 18.1-15-26.44a1 1 0 0 0-1.363-0.3771zm37.55 4.855 3.993-2.266c0.4067-0.2308 0.9198-0.0891 1.151 0.3176l2.266 3.993c0.2308 0.4067 0.0891 0.9198-0.3176 1.151l-3.993 2.266c-0.4067 0.2308-0.9198 0.0891-1.151-0.3176l-2.266-3.993c-0.2308-0.4067-0.0891-0.9198 0.3176-1.151zm-10.42-1.308 3.341-1.895c0.5874-0.3333 1.329-0.1287 1.662 0.4587l4.994 8.802c0.3333 0.5874 0.1287 1.329-0.4587 1.662l-3.341 1.895c-0.5874 0.3333-1.329 0.1287-1.662-0.4587l-4.994-8.802c-0.3333-0.5874-0.1287-1.329 0.4587-1.662zm-13.84-6.584 3.341-1.895c0.5874-0.3333 1.329-0.1287 1.662 0.4587l11.19 19.72c0.3333 0.5874 0.1287 1.329-0.4587 1.662l-3.341 1.895c-0.5874 0.3333-1.329 0.1287-1.662-0.4587l-11.19-19.72c-0.3333-0.5874-0.1287-1.329 0.4587-1.662zm-4.71 9.892 3.667-2.081c0.4971-0.282 1.124-0.1089 1.406 0.3881l8.278 14.59c0.282 0.497 0.1089 1.124-0.3881 1.406l-3.667 2.081c-0.497 0.282-1.124 0.1089-1.406-0.3881l-8.278-14.59c-0.282-0.497-0.1089-1.124 0.3881-1.406z" stop-color="#000000"/>
        <path d="m277.3 578.1c-1.699-0.013-3.398 0.2309-5.041 0.7344-0.5288 0.1614-0.8263 0.7214-0.6641 1.25l4.365 14.25c0.2809 0.9215 1.574 0.9521 1.898 0.0449l5.107-14.17c0.1905-0.5318-0.0971-1.116-0.6348-1.289-1.635-0.5286-3.333-0.7995-5.031-0.8125zm-0.0137 2c1.146 9e-3 2.272 0.2717 3.393 0.5469l-3.686 10.23-3.148-10.28c1.137-0.2642 2.282-0.5089 3.441-0.5zm7.059 3.42c-0.5259-0.1702-1.09 0.1185-1.26 0.6445-0.863 2.676-4.846 15.03-4.846 15.03-0.187 0.5802 0.1841 1.191 0.7852 1.293l15.56 2.615c0.5448 0.0918 1.061-0.2755 1.152-0.8203 1.33-7.935-3.25-16.13-11.4-18.76zm0.3086 2.301c6.257 2.501 9.709 8.783 9.104 15.11l-13.26-2.23c0.468-1.451 3.075-9.53 4.156-12.88zm-13.78 0.5059c-8.85 2.712-13.84 12.12-11.12 20.97 2.713 8.855 12.11 13.85 20.96 11.14 6.075-1.862 10.58-7.004 11.63-13.27 0.0906-0.5441-0.2764-1.059-0.8203-1.15l-14.96-2.516-4.445-14.51c-0.1615-0.5278-0.72-0.825-1.248-0.6641z" stop-color="#000000" style="paint-order:stroke fill markers"/>
        <path d="m315.3 664.9-5.303 3.305a1 1 0 0 0-0.3203 1.379l1.123 1.803-4.455 2.777-4.457 2.775-1.123-1.803a1 1 0 0 0-1.377-0.3203l-10.61 6.613a1 1 0 0 0-0.3203 1.377l3.307 5.305a1 1 0 0 0 1.377 0.3184l10.61-6.611a1 1 0 0 0 0.3203-1.377l-1.125-1.805 3.607-2.248 6.084 9.76 6.611 10.61a1 1 0 0 0 1.377 0.3203l4.457-2.777 1.123 1.803a1 1 0 0 0 1.377 0.3203l5.305-3.307a1 1 0 0 0 0.3203-1.377l-3.307-5.305a1 1 0 0 0-1.377-0.3203l-5.305 3.307a1 1 0 0 0-0.3203 1.377l1.125 1.805-3.607 2.246-5.555-8.91 3.607-2.248 1.125 1.805a1 1 0 0 0 1.377 0.3184l5.305-3.305a1 1 0 0 0 0.3184-1.379l-3.305-5.303a1 1 0 0 0-1.379-0.3203l-5.303 3.307a1 1 0 0 0-0.3203 1.377l1.123 1.803-3.605 2.248-5.555-8.91 3.607-2.248 1.123 1.803a1 1 0 0 0 1.379 0.3203l5.303-3.307a1 1 0 0 0 0.3203-1.377l-3.305-5.305a1 1 0 0 0-1.379-0.3184zm0.2109 2.227 2.246 3.605-3.607 2.248-1.123-1.803-1.123-1.805zm-15.91 9.916 1.125 1.805 1.123 1.803-8.91 5.553-2.248-3.605zm22.53 0.6914 2.246 3.607-3.605 2.246-1.125-1.803-1.123-1.803zm6.611 10.61 2.248 3.607-3.607 2.248-1.123-1.803-1.125-1.805z" stop-color="#000000" style="paint-order:stroke fill markers"/>
      </g>
      <path d="m378.5 565.6c-2.293 1e-5 -4.172 1.891-4.172 4.197 0 2.306 1.879 4.197 4.172 4.197 0.3244 0 0.6123-0.116 0.916-0.1875l2.395 4.334a6.195 6.232 0 0 0-1.836 2.48l-5.266-0.5449c-0.2663-1.006-1.145-1.773-2.223-1.773-1.282 0-2.342 1.066-2.342 2.355-1e-5 1.289 1.06 2.355 2.342 2.355 0.7548 0 1.4-0.3934 1.83-0.9609l5.205 0.5371v2e-3a6.195 6.232 0 0 0-0.0117 0.3945 6.195 6.232 0 0 0 2.656 5.115l-1.891 4.059c-0.2936-0.0628-0.5675-0.1797-0.8789-0.1797-2.416 0-4.396 1.993-4.396 4.424s1.98 4.424 4.396 4.424c2.416 0 4.396-1.993 4.396-4.424 0-1.395-0.6939-2.592-1.707-3.404l1.879-4.033a6.195 6.232 0 0 0 1.74 0.252 6.195 6.232 0 0 0 3.25-0.9277l3.4 3.74c-0.0903 0.2684-0.1699 0.5427-0.1699 0.8398 0 1.476 1.21 2.695 2.678 2.695s2.678-1.219 2.678-2.695c0-1.476-1.21-2.693-2.678-2.693-0.4353 0-0.832 0.1309-1.197 0.3203l-3.203-3.521a6.195 6.232 0 0 0 1.436-3.99 6.195 6.232 0 0 0-0.8418-3.135l4.625-3.99c0.383 0.2244 0.8029 0.3887 1.273 0.3887 1.426 0 2.604-1.185 2.604-2.619s-1.178-2.619-2.604-2.619c-1.426 0-2.604 1.185-2.604 2.619 0 0.2214 0.0743 0.419 0.127 0.625l-4.689 4.047a6.195 6.232 0 0 0-4.084-1.547 6.195 6.232 0 0 0-2.162 0.3906l-2.334-4.225c0.8781-0.7713 1.465-1.869 1.465-3.125 0-2.306-1.881-4.197-4.174-4.197zm0 2.006c1.215 0 2.18 0.9693 2.18 2.191 0 1.222-0.9648 2.191-2.18 2.191-1.215 0-2.178-0.9693-2.178-2.191 0-1.222 0.9629-2.191 2.178-2.191zm0.8965 26.38c1.339 0 2.402 1.069 2.402 2.416 0 1.347-1.064 2.418-2.402 2.418-1.339 1e-5 -2.402-1.071-2.402-2.418s1.064-2.416 2.402-2.416z" style="paint-order:stroke fill markers"/>
      <path d="m387.5 505.9a0.8888 0.8888 0 0 0-0.6752 0.5676l-8.943 24.28a0.8888 0.8888 0 0 0 0.1614 0.887l8.69 10.1a0.8888 0.8888 0 0 0 0.302 0.1146 0.8887 0.8887 0 0 0 0.0643 0.1388 0.8887 0.8887 0 0 0 0.1354-0.0624 0.8888 0.8888 0 0 0 0.2882 0.1094l13.42-1.776 10.13 7.086a0.8888 0.8888 0 0 0 1.344-0.4218l8.943-24.28a0.8888 0.8888 0 0 0-0.3246-1.036l-10.41-7.284a0.8888 0.8888 0 0 0-0.1736-0.0417 0.8887 0.8887 0 0 0-0.0295-0.0642 0.8887 0.8887 0 0 0-0.0798 0.0364 0.8888 0.8888 0 0 0-0.3437-0.0833l-13.29 1.758-8.375-9.731a0.8888 0.8888 0 0 0-0.8332-0.2951zm0.4704 2.6 7.363 8.552-8.24 22.38-7.363-8.554zm20.8 7.622-8.249 22.4-11.78 1.559 8.249-22.4zm1.777 0.3159 8.908 6.23-8.306 22.56-8.908-6.232z" stop-color="#000000" stroke-linecap="round" stroke-linejoin="round" stroke-width=".2643" style="paint-order:stroke fill markers"/>
    </g>
  </g>
  <path d="m 90,421.4 c 43.39825,40.49455 100.54331,63.01664 159.9,63.02 43.95738,0.004 87.02999,-12.35339 124.3,-35.66 l -35.59,-237.7 c 2.63425,-3.66913 -11.67458,-15.49177 -44.13225,-22.45371 -4.32769,-1.4112 -46.03286,-9.31847 -49.6079,1.21851 z" fill="#d4851c" fill-opacity=".6592"/>
  <ellipse id="ml-dome" transform="rotate(-17.44)" cx="237.6" cy="204.6" rx="7.325" ry="2.281" fill="#fff" fill-opacity=".2485" style="paint-order:stroke fill markers"/>
  <path d="m250 0.003685c-138 0-250 112-250 250 0 138 112 250 250 250s250-112 250-250c0-138-112-250-250-250zm0 10.01c132.6 0 240 107.4 240 240 0 132.6-107.4 240-240 240-132.6 0-240-107.4-240-240 0-132.6 107.4-240 240-240z" fill="#27414d" fill-opacity=".9" stop-color="#000000" stroke-linecap="round" stroke-linejoin="round" style="paint-order:stroke fill markers"/>
  </g>
</svg>
